<?xml version="1.0" standalone="no"?>
<!DOCTYPE svg PUBLIC "-//W3C//DTD SVG 1.1//EN" "http://www.w3.org/Graphics/SVG/1.1/DTD/svg11.dtd" >
<svg xmlns="http://www.w3.org/2000/svg" xmlns:xlink="http://www.w3.org/1999/xlink" version="1.1">
<metadata></metadata>
<defs>
<font id="webfontregular" horiz-adv-x="1024" >
<font-face units-per-em="2048" ascent="1483" descent="-565" />
<missing-glyph horiz-adv-x="421" />
<glyph unicode="&#xfb01;" horiz-adv-x="1175" d="M10 856v121q0 23 6 29t29 6h156v80q0 105 13.5 166.5t47.5 107.5q85 117 242 117q76 0 144.5 -24t68.5 -50q0 -4 -4 -16l-37 -142q-3 -18 -17 -18q-10 0 -22 6q-54 25 -82 25q-57 0 -78 -43q-11 -20 -13.5 -40.5t-2.5 -78.5v-90h524q23 0 29 -6t6 -29v-942q0 -23 -6 -29 t-29 -6h-190q-23 0 -29 6t-6 29v786h-299v-786q0 -23 -6 -29t-29 -6h-190q-23 0 -29 6t-6 29v786h-156q-23 0 -29 6t-6 29zM768 1319q0 63 44.5 106t109.5 43q60 0 103.5 -44t43.5 -105q0 -63 -43.5 -107.5t-105.5 -44.5q-63 0 -107.5 44.5t-44.5 107.5z" />
<glyph unicode="&#xfb02;" horiz-adv-x="1214" d="M10 856v121q0 22 6 28.5t29 6.5h156v80q0 105 13.5 166.5t47.5 107.5q85 117 240 117q73 0 142 -23.5t69 -48.5q0 -6 -4 -18l-37 -142q-3 -18 -19 -18q-8 0 -45 16q-27 15 -59 15q-53 0 -74 -43q-14 -27 -14 -119v-90h209q35 0 35 -21q0 -4 -3 -10l-2 -10l-32 -121 q-5 -16 -12.5 -22.5t-24.5 -6.5h-170v-786q0 -23 -6 -29t-29 -6h-190q-23 0 -29 6t-6 29v786h-156q-23 0 -29 6t-6 29zM778 362v1041q0 33 31 39l184 37q20 4 25 4q20 0 20 -35v-1067q0 -119 4 -135q11 -41 52 -41q30 0 67 12q6 2 15 2q13 0 16 -12l41 -168l2 -8q2 -4 2 -8 q0 -20 -67 -39t-140 -19q-182 0 -233 148q-12 36 -15.5 77.5t-3.5 171.5z" />
<glyph unicode="&#xfb03;" horiz-adv-x="1734" d="M10 870v113q0 17 7.5 23t27.5 6h156v80q0 105 13.5 166.5t47.5 107.5q85 117 240 117q73 0 142 -23.5t69 -48.5v-8q0 -4 -2 -10l-39 -142q-6 -18 -19 -18q-8 0 -45 16q-27 15 -59 15q-53 0 -74 -43q-14 -27 -14 -119v-90h299v80q0 105 13.5 166.5t47.5 107.5 q85 117 242 117q76 0 144.5 -24t68.5 -50q0 -4 -4 -16l-37 -142q-3 -18 -16 -18q-11 0 -23 6q-54 25 -82 25q-57 0 -78 -43q-11 -20 -13.5 -40.5t-2.5 -78.5v-90h524q23 0 29 -6t6 -29v-942q0 -23 -6 -29t-29 -6h-190q-23 0 -29 6t-6 29v786h-299v-786q0 -23 -6 -29t-29 -6 h-190q-23 0 -29 6t-6 29v786h-299v-786q0 -23 -6 -29t-29 -6h-190q-23 0 -29 6t-6 29v786h-156q-26 0 -30.5 6t-4.5 43zM1327 1319q0 63 44.5 106t109.5 43q60 0 103.5 -44t43.5 -105q0 -63 -43.5 -107.5t-105.5 -44.5q-63 0 -107.5 44.5t-44.5 107.5z" />
<glyph unicode="&#xfb04;" horiz-adv-x="1773" d="M10 870v113q0 17 7.5 23t27.5 6h156v80q0 105 13.5 166.5t47.5 107.5q85 117 240 117q73 0 142 -23.5t69 -48.5v-8q0 -4 -2 -10l-39 -142q-6 -18 -19 -18q-8 0 -45 16q-27 15 -59 15q-53 0 -74 -43q-14 -27 -14 -119v-90h299v80q0 105 13.5 166.5t47.5 107.5 q85 117 240 117q73 0 142 -23.5t69 -48.5q0 -6 -4 -18l-37 -142q-3 -18 -19 -18q-8 0 -45 16q-27 15 -59 15q-53 0 -74 -43q-14 -27 -14 -119v-90h209q35 0 35 -21q0 -6 -2 -10l-2 -10l-33 -121q-5 -16 -12.5 -22.5t-24.5 -6.5h-170v-786q0 -23 -6 -29t-29 -6h-190 q-23 0 -29 6t-6 29l2 786h-301v-786q0 -23 -6 -29t-29 -6h-190q-23 0 -29 6t-6 29v786h-156q-26 0 -30.5 6t-4.5 43zM1337 362v1041q0 33 31 39l184 37q20 4 25 4q20 0 20 -35v-1067q0 -115 5 -135q11 -41 51 -41q29 0 67 12q6 2 15 2q13 0 16 -12l41 -168l2 -8q2 -4 2 -8 q0 -20 -67 -39t-140 -19q-182 0 -233 148q-12 36 -15.5 77.5t-3.5 171.5z" />
<glyph horiz-adv-x="0" />
<glyph horiz-adv-x="682" />
<glyph unicode=" "  horiz-adv-x="421" />
<glyph unicode="&#x09;" horiz-adv-x="421" />
<glyph unicode="&#xa0;" horiz-adv-x="421" />
<glyph unicode="!" horiz-adv-x="720" d="M188 119q0 72 51.5 122t125.5 50q69 0 119.5 -51.5t50.5 -122.5q0 -70 -51 -121t-122 -51q-72 0 -123 51t-51 123zM207 1384v15q0 17 8 22.5t33 5.5h219q43 0 43 -20v-4l-2 -19l-45 -825q-1 -27 -8.5 -34t-34.5 -7h-123q-28 0 -34.5 6.5t-8.5 34.5z" />
<glyph unicode="&#x22;" horiz-adv-x="1099" d="M211 1378q0 15 9 21t32 6h178q23 0 32 -6t9 -21q0 -8 -2 -18l-41 -473q-2 -25 -9.5 -32t-33.5 -7h-86q-26 0 -33 6.5t-10 32.5l-43 473q-2 8 -2 18zM629 1360v12q0 20 8 26.5t33 6.5h176q43 0 43 -23v-4l-2 -18l-41 -473q-2 -25 -9.5 -32t-33.5 -7h-86q-26 0 -33 6.5 t-10 32.5z" />
<glyph unicode="#" horiz-adv-x="1099" d="M92 281v108q0 28 7.5 35.5t35.5 7.5h101l36 344h-82q-28 0 -35.5 7t-7.5 34v117q0 26 7.5 33.5t35.5 7.5h103l35 334q3 24 11 31.5t32 7.5h98q25 0 33 -6t8 -23v-16l-35 -328h205l37 334q3 24 11 31.5t32 7.5h96q43 0 43 -23v-4l-2 -18l-35 -328h103q28 0 35.5 -7.5 t7.5 -33.5v-117q0 -26 -7.5 -33.5t-35.5 -7.5h-123l-37 -344h104q28 0 35.5 -7.5t7.5 -35.5v-108q0 -28 -7.5 -35.5t-35.5 -7.5h-123l-38 -363q-3 -23 -11.5 -31t-31.5 -8h-99q-25 0 -33 6.5t-8 26.5v12l39 357h-207l-39 -363q-3 -23 -11.5 -31t-31.5 -8h-98q-23 0 -32 6 t-9 21q0 8 2 18l37 357h-80q-29 0 -36 7t-7 36zM418 432h207l34 344h-204z" />
<glyph unicode="$" horiz-adv-x="1099" d="M127 999q0 161 92.5 260.5t267.5 124.5v105q0 28 7.5 35.5t35.5 7.5h41q28 0 35.5 -7.5t7.5 -35.5v-100q116 -6 219 -43.5t103 -73.5q0 -17 -6 -23l-64 -139q-6 -16 -18 -16q-8 0 -41 18q-89 50 -193 59v-376q112 -52 166.5 -86t93.5 -74q101 -104 101 -256 q0 -160 -97 -268t-264 -134v-90q0 -28 -7.5 -35.5t-35.5 -7.5h-41q-28 0 -35.5 7.5t-7.5 35.5v86q-132 9 -244 45t-112 70l2 18l62 173q6 16 18 16q10 0 43 -16q132 -68 231 -76v399q-111 48 -160 74.5t-85 56.5q-115 100 -115 266zM360 1014q0 -60 33.5 -103t108.5 -80v345 q-142 -35 -142 -162zM600 197q67 15 103 59.5t36 112.5q0 65 -32.5 110.5t-106.5 85.5v-368z" />
<glyph unicode="%" horiz-adv-x="1705" d="M96 983q0 172 87 273.5t235 101.5q138 0 221.5 -98t83.5 -261q0 -173 -85.5 -271.5t-236.5 -98.5q-141 0 -223 95t-82 259zM295 999q0 -219 117 -219q116 0 116 207q0 219 -120 219q-53 0 -83 -55t-30 -152zM457 -59q0 9 8 28l577 1387q13 30 48 30h104q22 0 30.5 -5.5 t8.5 -18.5q0 -12 -6 -27l-576 -1380q-14 -37 -49 -37h-104q-41 0 -41 23zM985 322q0 172 86.5 273t235.5 101q138 0 221.5 -97.5t83.5 -258.5q0 -173 -85.5 -272t-236.5 -99q-141 0 -223 95t-82 258zM1184 336q0 -215 116 -215q117 0 117 205q0 219 -121 219q-52 0 -82 -56 t-30 -153z" />
<glyph unicode="&#x26;" horiz-adv-x="1251" d="M86 338q0 127 64 215.5t233 194.5q-110 131 -149 203.5t-39 148.5q0 146 116.5 247t284.5 101q163 0 265 -90.5t102 -235.5q0 -110 -57.5 -197t-203.5 -200l220 -260q52 97 65 252q3 22 19 22q4 0 20 -4l152 -41q24 -6 24 -30q0 -66 -36.5 -178.5t-86.5 -198.5l146 -176 q18 -20 18 -31q0 -12 -20 -29l-105 -88q-15 -12 -28 -12q-14 0 -31 20l-113 127q-89 -83 -178.5 -117t-216.5 -34q-214 0 -339.5 105t-125.5 286zM358 369q0 -88 60 -146.5t149 -58.5q128 0 226 110l-279 328q-156 -103 -156 -233zM436 1106q0 -49 20.5 -84.5t98.5 -128.5 q2 -3 5.5 -7t8.5 -9.5t9 -10.5q78 69 108.5 121.5t30.5 118.5q0 68 -36 106.5t-99 38.5t-104.5 -41t-41.5 -104z" />
<glyph unicode="'" horiz-adv-x="720" d="M229 1378q0 15 9 21t32 6h179q23 0 31.5 -6t8.5 -21q0 -8 -2 -18l-41 -473q-2 -25 -9.5 -32t-33.5 -7h-86q-26 0 -33 6.5t-10 32.5l-43 473q-2 8 -2 18z" />
<glyph unicode="(" horiz-adv-x="909" d="M240 500q0 234 68.5 434t228.5 430q76 109 103.5 141.5t45.5 32.5q21 0 94 -49q31 -19 41 -29t10 -20q0 -13 -16 -37q-53 -74 -113.5 -181t-91.5 -180q-102 -239 -102 -542q0 -250 72 -462t235 -441q16 -24 16 -37q0 -17 -16 -27l-106 -65q-11 -7 -23 -7 q-19 0 -61.5 53.5t-128.5 182.5q-132 200 -194 393.5t-62 409.5z" />
<glyph unicode=")" horiz-adv-x="909" d="M80 -440q0 16 16 37q46 64 110 176.5t95 183.5q102 246 102 543q0 337 -131 608q-24 50 -86.5 155t-89.5 140q-16 21 -16 37q0 13 16 26l109 66q9 6 20 6q20 0 63 -53.5t128 -181.5q133 -201 194.5 -393.5t61.5 -409.5q0 -234 -69 -434.5t-228 -430.5 q-71 -103 -102 -138.5t-48 -35.5q-20 0 -94 50q-32 22 -41.5 31t-9.5 18z" />
<glyph unicode="*" horiz-adv-x="1099" d="M160 1053q0 8 6 26l41 125q10 35 26 35q9 0 29 -12l225 -121l-41 254l-2 10q-2 4 -2 12q0 23 43 23h131q23 0 32 -5.5t9 -19.5l-2 -22l-45 -252l228 119q18 10 28 10q9 0 15 -7t12 -26l41 -125q6 -20 6 -26q0 -12 -8 -17t-31 -8l-254 -35l182 -180q19 -17 19 -29 q0 -15 -23 -30l-106 -78q-21 -15 -31 -15q-13 0 -26 29l-113 232l-115 -230q-12 -28 -26 -28t-31 14l-107 78q-22 15 -22 28q0 16 18 31l185 178l-254 37q-37 5 -37 25z" />
<glyph unicode="+" d="M45 618v130q0 28 7.5 35.5t35.5 7.5h313v317q0 28 7.5 35.5t33.5 7.5h138q28 0 35.5 -7.5t7.5 -35.5v-317h313q28 0 35.5 -7.5t7.5 -35.5v-130q0 -26 -7.5 -33t-35.5 -7h-313v-318q0 -26 -7.5 -33.5t-35.5 -7.5h-138q-26 0 -33.5 7.5t-7.5 33.5v318h-313q-28 0 -35.5 6.5 t-7.5 33.5z" />
<glyph unicode="," horiz-adv-x="606" d="M63 -221q0 3 7 24l127 418q6 20 15.5 27.5t31.5 7.5h196q41 0 41 -23q0 -13 -10 -28l-244 -459q-9 -18 -14 -23.5t-14 -5.5q-4 0 -25 7l-78 26q-20 8 -26.5 13.5t-6.5 15.5z" />
<glyph unicode="-" horiz-adv-x="757" d="M80 442v162q0 28 7 34.5t36 6.5h512q28 0 35.5 -7.5t7.5 -33.5v-162q0 -28 -7 -34.5t-36 -6.5h-512q-28 0 -35.5 7t-7.5 34z" />
<glyph unicode="." horiz-adv-x="606" d="M109 164q0 80 57.5 136t140.5 56q78 0 134.5 -57.5t56.5 -136.5q0 -82 -56.5 -138.5t-138.5 -56.5t-138 57t-56 140z" />
<glyph unicode="/" horiz-adv-x="909" d="M-39 -512q0 7 6 23l668 1980q11 37 55 37h121q37 0 37 -25q0 -8 -6 -26l-666 -1979q-12 -37 -55 -37h-119q-25 0 -33 5t-8 22z" />
<glyph unicode="0" horiz-adv-x="1099" d="M63 674q0 404 158 581q62 71 154.5 110.5t197.5 39.5q91 0 173.5 -37t140.5 -104q79 -92 114 -223.5t35 -338.5q0 -219 -30 -349.5t-101 -223.5q-130 -164 -362 -164t-356 182.5t-124 526.5zM328 682q0 -260 53 -379t170 -119q124 0 178 121q23 55 33 130.5t10 209.5 q0 179 -10.5 273t-38.5 157q-51 111 -170 111q-115 0 -170 -123t-55 -381z" />
<glyph unicode="1" horiz-adv-x="1099" d="M131 1071q0 10 25 29l385 270h143q26 0 33.5 -7.5t7.5 -35.5v-1137h147q29 0 36 -7t7 -36v-104q0 -29 -7 -36t-36 -7h-600q-28 0 -35.5 7.5t-7.5 35.5v104q0 28 7.5 35.5t35.5 7.5h195v861l-213 -117q-23 -12 -31 -12q-11 0 -26 28l-54 90q-12 19 -12 31z" />
<glyph unicode="2" horiz-adv-x="1099" d="M141 1057q0 35 34 102t75 113q118 133 332 133q185 0 287 -102.5t102 -288.5q0 -195 -121 -328q-12 -14 -21.5 -23.5t-17.5 -18t-20.5 -19t-21.5 -18t-31 -25t-37.5 -29.5t-52.5 -41t-66 -51q-79 -61 -111.5 -114t-34.5 -118h479q28 0 35.5 -7.5t7.5 -35.5v-143 q0 -28 -7.5 -35.5t-35.5 -7.5h-737q-28 0 -28 29v16q0 130 12.5 201t50.5 139q44 81 103.5 139.5t224.5 186.5q104 79 144 143.5t40 151.5q0 83 -44 127.5t-124 44.5q-75 0 -120.5 -38.5t-86.5 -135.5q-12 -31 -31 -31q-10 0 -22 4l-131 49q-25 9 -25 31z" />
<glyph unicode="3" horiz-adv-x="1099" d="M92 78q0 4 4 20l41 148q4 18 23 18q8 0 20 -6q159 -76 279 -76q109 0 168 57.5t59 161.5q0 106 -62.5 155.5t-195.5 49.5h-61q-28 0 -35.5 7.5t-7.5 35.5v135q0 28 7.5 35.5t35.5 7.5h65q104 0 150 35q33 24 52 67t19 91q0 76 -46.5 123t-121.5 47q-53 0 -96.5 -25 t-87.5 -80q-17 -20 -27 -20q-6 0 -18 8l-113 103q-10 10 -10 20q0 21 43 70q130 139 324 139q181 0 292 -101t111 -264q0 -110 -46.5 -182.5t-147.5 -122.5q241 -77 241 -348q0 -192 -145 -313q-129 -109 -324 -109q-181 0 -329 68q-34 15 -47 24.5t-13 20.5z" />
<glyph unicode="4" horiz-adv-x="1099" d="M61 311v215l510 852q16 27 27 27q10 0 29 -8l123 -51q30 -13 30 -29q0 -11 -12 -29l-477 -811h319l27 330q1 26 8.5 32.5t34.5 6.5h139q29 0 36 -7t7 -36v-332h117q29 0 36 -7.5t7 -41.5v-111q0 -26 -7.5 -33.5t-35.5 -7.5h-117v-266q0 -28 -7 -34.5t-36 -6.5h-170 q-29 0 -36 6.5t-7 34.5v266h-502q-29 0 -36 6.5t-7 34.5z" />
<glyph unicode="5" horiz-adv-x="1099" d="M125 57q0 13 2 23l29 149q3 19 18 19q4 0 16 -4q59 -22 135.5 -38t125.5 -16q138 0 221.5 74t83.5 197q0 103 -54 160t-151 57q-126 0 -205 -94q-16 -19 -29 -19q-8 0 -20 4l-123 39q-20 6 -26.5 12t-6.5 17q0 10 2 20l64 674q3 27 9.5 33t33.5 6h600q29 0 36 -7.5 t7 -35.5v-137q0 -28 -7 -34.5t-36 -6.5h-422l-37 -320q92 60 211 60q175 0 284 -117.5t109 -306.5q0 -226 -145.5 -363t-386.5 -137q-156 0 -301 53q-37 14 -37 39z" />
<glyph unicode="6" horiz-adv-x="1099" d="M121 569q0 381 163.5 608.5t438.5 227.5q79 0 146 -21.5t67 -46.5q0 -8 -4 -18l-43 -143q-1 -7 -6.5 -12t-10.5 -5q-2 0 -14 4q-74 27 -131 27q-129 0 -216.5 -86.5t-125.5 -251.5q60 60 112.5 83t127.5 23q139 0 241 -94q133 -124 133 -383q0 -264 -143 -401 q-118 -115 -299 -115q-212 0 -324 155.5t-112 448.5zM391 469q0 -133 45.5 -206t128.5 -73q88 0 137.5 75t49.5 208q0 132 -46 201t-133 69q-86 0 -134 -72t-48 -202z" />
<glyph unicode="7" horiz-adv-x="1099" d="M125 1171v156q0 28 7.5 35.5t35.5 7.5h739q28 0 35.5 -7.5t7.5 -35.5v-80l-463 -1247q-8 -20 -13.5 -25.5t-18.5 -5.5t-19 2l-157 29q-37 6 -37 25q0 15 8 28l416 1075h-498q-28 0 -35.5 7.5t-7.5 35.5z" />
<glyph unicode="8" horiz-adv-x="1099" d="M66 356q0 123 76 218.5t214 146.5q-239 105 -239 326q0 152 124 255t308 103q183 0 304.5 -102t121.5 -256q0 -100 -57 -179t-177 -143q285 -124 285 -363q0 -135 -96 -245q-131 -152 -389 -152q-214 0 -336 96q-65 53 -102 131.5t-37 163.5zM324 371q0 -89 60.5 -142 t160.5 -53q98 0 160.5 54.5t62.5 140.5q0 58 -30 109t-83 83q-55 31 -120 60q-113 -54 -162 -113t-49 -139zM375 1022q0 -71 40 -116.5t140 -88.5q86 37 124 84t38 117q0 78 -48 127t-124 49q-74 0 -122 -48.5t-48 -123.5z" />
<glyph unicode="9" horiz-adv-x="1099" d="M98 901q0 230 120 367t321 137q213 0 325.5 -155t112.5 -449q0 -387 -164 -611.5t-448 -224.5q-79 0 -136 15.5t-57 37.5v21l29 143q3 21 20 21q7 0 23 -4q70 -19 131 -19q129 0 215.5 89t126.5 263q-61 -67 -115 -93.5t-131 -26.5q-138 0 -240 94q-69 65 -101 159.5 t-32 235.5zM346 901q0 -132 46.5 -203t133.5 -71q88 0 134.5 71t46.5 203q0 137 -45.5 208t-133.5 71q-85 0 -133.5 -75t-48.5 -204z" />
<glyph unicode=":" horiz-adv-x="606" d="M109 164q0 80 57.5 136t140.5 56q78 0 134.5 -57.5t56.5 -136.5q0 -82 -56.5 -138.5t-138.5 -56.5t-138 57t-56 140zM109 840q0 80 57.5 136t140.5 56q78 0 134.5 -57.5t56.5 -136.5q0 -82 -56.5 -138.5t-138.5 -56.5t-138 57t-56 140z" />
<glyph unicode=";" horiz-adv-x="606" d="M63 -221q0 3 7 24l127 418q6 20 15.5 27.5t31.5 7.5h196q41 0 41 -23q0 -13 -10 -28l-244 -459q-9 -18 -14 -23.5t-14 -5.5q-4 0 -25 7l-78 26q-20 8 -26.5 13.5t-6.5 15.5zM125 840q0 80 58 136t141 56q78 0 134 -57t56 -137q0 -82 -56.5 -138.5t-138.5 -56.5t-138 57 t-56 140z" />
<glyph unicode="&#x3c;" d="M55 571v228l914 463v-252l-654 -326l654 -326v-252z" />
<glyph unicode="=" d="M45 451v129q0 27 7 34t36 7h848q28 0 35.5 -7.5t7.5 -33.5v-129q0 -28 -7.5 -35.5t-35.5 -7.5h-848q-29 0 -36 7t-7 36zM45 793v127q0 29 7.5 36t35.5 7h848q28 0 35.5 -7.5t7.5 -35.5v-127q0 -28 -7.5 -35.5t-35.5 -7.5h-848q-26 0 -34.5 8.5t-8.5 34.5z" />
<glyph unicode="&#x3e;" d="M55 106v252l654 326l-654 326v252l914 -463v-228z" />
<glyph unicode="?" d="M119 1329q0 24 61.5 52.5t152 48.5t165.5 20q183 0 294 -105t111 -278q0 -194 -158 -297q-57 -38 -180 -78v-139q0 -28 -7.5 -35.5t-33.5 -7.5h-145q-28 0 -35.5 7.5t-7.5 35.5v256q0 23 8 31.5t39 15.5q266 58 266 213q0 71 -50 109.5t-142 38.5q-52 0 -101 -12.5 t-125 -45.5q-30 -12 -34 -12q-14 0 -21 20l-53 140q-4 12 -4 22zM287 119q0 72 51 122t125 50q69 0 119.5 -51t50.5 -123q0 -71 -50.5 -121.5t-121.5 -50.5q-72 0 -123 51t-51 123z" />
<glyph unicode="@" horiz-adv-x="2048" d="M190 385q0 199 81 389t221 324q133 127 308.5 194.5t373.5 67.5q172 0 319 -52t238 -145q77 -80 120 -194t43 -238q0 -175 -74 -320t-203.5 -228t-285.5 -83q-86 0 -132 34t-60 108q-57 -75 -115.5 -108.5t-130.5 -33.5q-85 0 -132.5 64.5t-47.5 179.5q0 127 45 246 t123 203q82 88 198 88q100 0 164 -70l10 23q11 22 33 22h119q25 0 25 -20l-3 -21l-92 -438q-6 -18 -6 -53q0 -32 19.5 -47t62.5 -15q120 0 206.5 134t86.5 321q0 222 -144.5 348.5t-396.5 126.5q-332 0 -540 -211q-109 -113 -172.5 -274t-63.5 -328q0 -274 172 -432 q156 -144 455 -144q323 0 588 131q23 13 36 13q15 0 19 -13l35 -92q2 -6 4 -10.5t2.5 -6t1 -3.5t0.5 -4q0 -14 -31 -33q-101 -66 -288 -108t-380 -42q-201 0 -345.5 47.5t-247.5 147.5t-160.5 245.5t-57.5 309.5zM915 342q0 -80 58 -80q32 0 67 20.5t60 51.5q31 39 49 121 l49 229q-33 28 -55 38.5t-49 10.5q-62 0 -105 -76q-29 -54 -51.5 -149t-22.5 -166z" />
<glyph unicode="A" horiz-adv-x="1138" d="M8 23q0 2 6 26l404 1321q8 25 14 30t31 5h213q25 0 31 -5t14 -30l403 -1321q6 -21 6 -26q0 -12 -8.5 -17.5t-31.5 -5.5h-224q-27 0 -34 5.5t-13 29.5l-88 336h-346l-88 -336q-6 -25 -12.5 -30t-32.5 -5h-203q-41 0 -41 23zM416 563h262l-76 350q-16 74 -51 277 q-24 -156 -53 -277z" />
<glyph unicode="B" horiz-adv-x="1175" d="M174 43v1319q0 28 7.5 35.5t35.5 7.5h332q147 0 213 -12t119 -47q66 -44 104.5 -126t38.5 -176q0 -113 -49 -186.5t-158 -122.5q123 -32 190.5 -121t67.5 -217q0 -114 -55 -212.5t-143 -141.5q-49 -25 -116.5 -34t-195.5 -9h-348q-29 0 -36 7t-7 36zM440 223h97 q138 0 197 44t59 147q0 106 -58 151t-194 45h-101v-387zM440 821h86q63 0 97.5 7.5t62.5 27.5q66 50 66 160q0 113 -80 162q-40 22 -123 22h-109v-379z" />
<glyph unicode="C" horiz-adv-x="983" d="M82 723q0 189 39.5 323.5t122.5 231.5q66 78 157 120t195 42q167 0 309 -105q43 -32 43 -49q0 -12 -4 -16l-84 -152q-8 -16 -20 -16q-14 0 -62 37q-81 63 -166 63q-235 0 -235 -438q0 -306 80 -457q26 -49 75 -76.5t109 -27.5q51 0 89 15t95 58q18 9 21 9q8 0 18 -19 l82 -143q6 -9 6 -19q0 -24 -45 -55q-127 -84 -297 -84q-229 0 -350 139q-178 202 -178 619z" />
<glyph unicode="D" horiz-adv-x="1214" d="M174 43v1319q0 28 7.5 35.5t35.5 7.5h322q147 0 213 -12q195 -37 288 -206.5t93 -486.5q0 -516 -261 -649q-62 -31 -125.5 -41t-207.5 -10h-322q-28 0 -35.5 7.5t-7.5 35.5zM455 223h71q84 0 132.5 12t80.5 41q52 46 75.5 143t23.5 269q0 198 -30 302.5t-99 150.5 q-35 25 -72 33t-111 8h-71v-959z" />
<glyph unicode="E" horiz-adv-x="987" d="M174 43v1319q0 29 7 36t36 7h684q41 0 41 -23q0 -6 -4 -26l-41 -139q-6 -21 -15 -28t-30 -7h-397v-336h342q28 0 35.5 -7.5t7.5 -35.5v-137q0 -28 -7.5 -35.5t-35.5 -7.5h-342v-400h430q28 0 35.5 -7.5t7.5 -35.5v-137q0 -29 -7 -36t-36 -7h-668q-29 0 -36 7t-7 36z" />
<glyph unicode="F" horiz-adv-x="911" d="M174 43v1319q0 29 7 36t36 7h684q41 0 41 -23q0 -3 -0.5 -6t-1.5 -8.5t-2 -11.5l-41 -139q-6 -24 -13.5 -29.5t-31.5 -5.5h-397v-336h342q28 0 35.5 -7.5t7.5 -35.5v-137q0 -28 -7.5 -35.5t-35.5 -7.5h-342v-580q0 -28 -7.5 -35.5t-35.5 -7.5h-195q-29 0 -36 7t-7 36z " />
<glyph unicode="G" horiz-adv-x="1138" d="M82 700q0 363 140.5 551.5t410.5 188.5q195 0 340 -90q24 -15 31.5 -22.5t7.5 -18.5q0 -9 -4 -17l-76 -153q-7 -11 -14 -11q-9 0 -19 7q-94 51 -144 67.5t-110 16.5t-111 -24.5t-79 -66.5q-86 -127 -86 -415q0 -133 17 -241t48 -163q28 -51 86.5 -82.5t126.5 -31.5 q76 0 141 32v287h-153q-28 0 -35.5 7.5t-7.5 35.5v137q0 28 7 35.5t36 7.5h362q29 0 36 -7.5t7 -35.5v-573q0 -24 -4.5 -32t-27.5 -23q-74 -47 -175 -74t-208 -27q-543 0 -543 735z" />
<glyph unicode="H" horiz-adv-x="1290" d="M174 43v1319q0 29 7 36t36 7h195q28 0 35.5 -7.5t7.5 -35.5v-531h383v531q0 28 7.5 35.5t33.5 7.5h196q29 0 36 -7t7 -36v-1319q0 -29 -7 -36t-36 -7h-196q-28 0 -34.5 7t-6.5 36v580h-383v-580q0 -28 -7.5 -35.5t-35.5 -7.5h-195q-29 0 -36 7t-7 36z" />
<glyph unicode="I" horiz-adv-x="720" d="M68 43v117q0 28 7.5 35.5t35.5 7.5h110v999h-110q-28 0 -35.5 7.5t-7.5 35.5v117q0 29 7 36t36 7h501q28 0 35.5 -7.5t7.5 -35.5v-117q0 -28 -7.5 -35.5t-35.5 -7.5h-110v-999h110q28 0 35.5 -7.5t7.5 -35.5v-117q0 -28 -7.5 -35.5t-35.5 -7.5h-501q-29 0 -36 7t-7 36z " />
<glyph unicode="J" horiz-adv-x="872" d="M-23 365q0 27 7 38t22 11h197q22 0 22 -29v-27q0 -165 123 -165q68 0 90 51q12 26 15.5 53t3.5 96v809h-283q-28 0 -35.5 7.5t-7.5 35.5v117q0 28 7.5 35.5t35.5 7.5h522q26 0 33.5 -7.5t7.5 -35.5v-930q0 -114 -13 -184t-44 -123q-50 -82 -131.5 -121t-204.5 -39 q-124 0 -201 45.5t-123 145.5q-43 93 -43 209z" />
<glyph unicode="K" horiz-adv-x="1175" d="M174 43v1319q0 29 7 36t36 7h195q28 0 35.5 -7.5t7.5 -35.5v-576l444 615q16 22 31 22q10 0 26 -8l150 -76q19 -9 24 -14.5t5 -15.5q0 -9 -15 -29l-424 -561l480 -596q16 -16 16 -31q0 -9 -5.5 -14.5t-23.5 -14.5l-176 -90q-16 -8 -29 -8q-11 0 -26 21l-477 632v-575 q0 -28 -7.5 -35.5t-35.5 -7.5h-195q-29 0 -36 7t-7 36z" />
<glyph unicode="L" horiz-adv-x="987" d="M174 43v1319q0 29 7 36t36 7h195q28 0 35.5 -7.5t7.5 -35.5v-1108h487q41 0 41 -23q0 -4 -4 -24l-37 -170q-4 -23 -13 -30t-34 -7h-678q-29 0 -36 7t-7 36z" />
<glyph unicode="M" horiz-adv-x="1441" d="M141 31v12l60 1321q2 26 9.5 33.5t33.5 7.5h202q24 0 31.5 -5t14.5 -28l163 -518q23 -71 56 -236q43 162 69 238l174 516q8 23 14 28t31 5h193q27 0 34 -7t9 -34l65 -1284q3 -46 3 -53q0 -27 -43 -27h-185q-28 0 -35.5 7.5t-7.5 33.5l-14 723v70q0 108 2 225 q-44 -191 -76 -297l-131 -420q-8 -23 -14.5 -28t-32.5 -5h-125q-25 0 -31 5t-14 30l-115 399q-29 104 -75 316l2 -289v-33l-17 -696q0 -26 -7.5 -33.5t-35.5 -7.5h-166q-23 0 -32 7t-9 24z" />
<glyph unicode="N" horiz-adv-x="1251" d="M150 43v1319q0 29 7 36t36 7h159q29 0 37.5 -5t22.5 -30l323 -602q69 -126 131 -315q-4 156 -4 258v651q0 28 7.5 35.5t35.5 7.5h154q29 0 36 -7t7 -36v-1319q0 -29 -7 -36t-36 -7h-131q-28 0 -38.5 6.5t-23.5 32.5l-352 663q-81 152 -131 291q6 -143 6 -250v-700 q0 -28 -7.5 -35.5t-35.5 -7.5h-153q-29 0 -36 7t-7 36z" />
<glyph unicode="O" horiz-adv-x="1175" d="M82 709q0 224 43 368t137 236q133 127 336 127q101 0 194.5 -39.5t151.5 -106.5q152 -174 152 -575q0 -375 -129.5 -564.5t-384.5 -189.5q-500 0 -500 744zM377 700q0 -514 211 -514q213 0 213 510q0 268 -52.5 395.5t-162.5 127.5q-101 0 -155 -133.5t-54 -385.5z" />
<glyph unicode="P" horiz-adv-x="1062" d="M174 43v1319q0 29 7 36t36 7h332q123 0 196.5 -13t124.5 -44q72 -44 114 -132t42 -196q0 -207 -127.5 -333t-339.5 -126h-104v-518q0 -28 -7.5 -35.5t-35.5 -7.5h-195q-29 0 -36 7t-7 36zM455 793h57q135 0 189.5 47t54.5 164q0 109 -48 150.5t-173 41.5h-80v-403z" />
<glyph unicode="Q" horiz-adv-x="1175" d="M82 711q0 220 42 363.5t134 238.5q124 127 328 127q253 0 381.5 -178.5t128.5 -530.5q0 -204 -37 -362.5t-105 -241.5q63 -57 181 -137q24 -15 24 -29q0 -6 -8 -14l-150 -105q-18 -12 -26 -12q-28 0 -85 44t-128 120q-77 -29 -172 -29q-257 0 -382.5 184t-125.5 562z M377 698q0 -512 211 -512q213 0 213 516q0 264 -52.5 390.5t-162.5 126.5q-102 0 -155.5 -133.5t-53.5 -387.5z" />
<glyph unicode="R" horiz-adv-x="1138" d="M174 49v1313q0 29 7 36t36 7h334q115 0 182 -12t121 -41q174 -98 174 -351q0 -142 -54 -234.5t-175 -156.5l305 -534q10 -17 10 -31q0 -17 -33 -25l-182 -51q-18 -6 -25 -6q-13 0 -28 29l-289 583h-108v-532q0 -28 -7.5 -35.5t-35.5 -7.5h-189q-29 0 -36 7.5t-7 41.5z M449 793h57q135 0 189.5 47t54.5 164q0 108 -48.5 150t-173.5 42h-79v-403z" />
<glyph unicode="S" horiz-adv-x="987" d="M49 94q0 7 4 23l68 176q6 18 18 18q7 0 19 -6q181 -100 313 -100q88 0 136 44t48 126q0 79 -43 125q-26 29 -65.5 53t-167.5 88q-184 92 -252 176t-68 221q0 181 121.5 288.5t327.5 107.5q78 0 171 -21t156.5 -51.5t63.5 -56.5q0 -5 -6 -17l-74 -155q-7 -15 -18 -15 q-6 0 -80 37q-103 53 -205 53q-86 0 -136 -40t-50 -109q0 -75 80 -129q46 -28 215 -113q158 -79 228.5 -178t70.5 -242q0 -190 -123.5 -308t-323.5 -118q-124 0 -276 44t-152 79z" />
<glyph unicode="T" horiz-adv-x="833" d="M-35 1202v160q0 28 7 35.5t36 7.5h846q41 0 41 -23q0 -12 -4 -24l-43 -162q-6 -23 -14 -29t-31 -6h-252v-1118q0 -29 -7 -36t-36 -7h-199q-29 0 -36 7t-7 36v1118h-258q-29 0 -36 6.5t-7 34.5z" />
<glyph unicode="U" horiz-adv-x="1251" d="M135 475v887q0 29 7 36t36 7h195q28 0 35.5 -7.5t7.5 -35.5v-887q0 -101 8 -143t33 -74q54 -72 168 -72q121 0 174 66.5t53 218.5v891q0 28 7.5 35.5t35.5 7.5h184q29 0 36 -7t7 -36v-887q0 -135 -24.5 -214.5t-87.5 -145.5q-144 -150 -406 -150q-284 0 -399 178 q-37 59 -53.5 136t-16.5 196z" />
<glyph unicode="V" horiz-adv-x="1060" d="M-6 1362q0 10 7.5 14.5t29.5 9.5l215 39q8 2 16 2h6q12 0 17 -7t10 -29l178 -834q2 -9 7.5 -37.5t10 -52.5t7.5 -39q5 -27 14 -85.5t14 -88.5q28 146 64 303l192 825q4 20 10.5 27.5t18.5 7.5l20 -2l199 -22q39 -5 39 -27q0 -7 -4 -25l-375 -1335q-6 -23 -14 -29t-31 -6 h-239q-26 0 -33 5t-13 30l-362 1331q-4 20 -4 25z" />
<glyph unicode="W" horiz-adv-x="1593" d="M49 1352q0 12 7.5 17.5t29.5 10.5l180 35q20 2 23 2q12 0 16.5 -7.5t9.5 -29.5l123 -680q25 -145 43 -350q3 26 10 64t9 51q2 10 5.5 39.5t9.5 67t15 77.5l162 713q6 26 13 31.5t34 5.5h164q26 0 32.5 -5.5t12.5 -31.5l139 -645q30 -135 48 -281l12 -96q21 221 49 377 l119 663q5 23 9.5 30t16.5 7q7 0 23 -4l172 -37q35 -8 35 -26q0 -13 -4 -25l-299 -1317q-4 -23 -13 -30t-32 -7h-183q-26 0 -33 6t-12 31l-133 699q-26 131 -34 193t-15 153q-8 -75 -27 -189q-12 -64 -16 -90q-8 -16 -14 -69l-158 -697q-6 -26 -12.5 -31.5t-32.5 -5.5h-184 q-27 0 -34 5.5t-11 31.5l-271 1323q-4 10 -4 21z" />
<glyph unicode="X" horiz-adv-x="1062" d="M-2 53q0 10 12 31l377 659l-344 578q-12 23 -12 31q0 18 37 26l202 47l13 5q6 2 14 2q7 0 11.5 -5t15.5 -26l153 -307q32 -65 66 -152q27 89 59 154l141 309q12 31 29 31q1 0 25 -4l192 -56q35 -8 35 -26q0 -12 -10 -29l-326 -582l381 -663q12 -19 12 -29q0 -19 -34 -27 l-201 -49q-7 -2 -12.5 -3.5t-7.5 -2t-5 -0.5q-13 0 -28 29l-191 377q-29 57 -61 135q-24 -56 -66 -135l-192 -375q-13 -27 -29 -27q-9 0 -25 4l-196 56q-21 6 -28 10.5t-7 13.5z" />
<glyph unicode="Y" horiz-adv-x="987" d="M-43 1360q0 21 39 26l213 35q14 4 20 4q11 0 16.5 -5t14.5 -25l164 -348q28 -58 86 -226q39 136 90 240l160 336q12 28 26 28q9 0 15 -2l10 -2l182 -39q35 -8 35 -26q0 -12 -10 -29l-377 -752v-532q0 -28 -7.5 -35.5t-35.5 -7.5h-195q-29 0 -36 7t-7 36v535l-393 753 q-10 20 -10 29z" />
<glyph unicode="Z" d="M63 43v164l558 964h-494q-41 0 -41 23q0 7 4 25l37 151q6 24 13 29.5t32 5.5h705q29 0 36 -7t7 -36v-184l-543 -926h573q43 0 43 -25q-2 -8 -2 -20l-24 -168q-5 -26 -12 -32.5t-33 -6.5h-816q-29 0 -36 7t-7 36z" />
<glyph unicode="[" horiz-adv-x="872" d="M264 -377v1798q0 29 7 36t36 7h402q26 0 33.5 -7.5t7.5 -35.5v-125q0 -28 -7.5 -35.5t-33.5 -7.5h-185v-1462h185q26 0 33.5 -7.5t7.5 -35.5v-125q0 -29 -6.5 -36t-34.5 -7h-402q-28 0 -35.5 7.5t-7.5 35.5z" />
<glyph unicode="\" horiz-adv-x="911" d="M61 1501q0 15 9 21t32 6h119q42 0 55 -37l666 -1978q6 -16 6 -27q0 -25 -37 -25h-120q-42 0 -54 37l-669 1981q-7 19 -7 22z" />
<glyph unicode="]" horiz-adv-x="872" d="M123 -252q0 28 7.5 35.5t35.5 7.5h184v1462h-184q-29 0 -36 7t-7 36v125q0 29 7 36t36 7h401q29 0 36 -7t7 -36v-1798q0 -29 -7 -36t-36 -7h-401q-29 0 -36 7t-7 36v125z" />
<glyph unicode="^" d="M25 750l329 661h316l329 -661h-251l-236 471l-236 -471h-251z" />
<glyph unicode="_" horiz-adv-x="1052" d="M0 -127h1053v-170h-1053v170z" />
<glyph unicode="`" d="M125 1346q0 8 10 28l64 125q15 29 28 29q9 0 29 -12l334 -199q26 -16 26 -29q0 -11 -10 -26l-31 -66q-13 -29 -28 -29q-3 0 -7.5 1.5t-10.5 3t-9 2.5l-362 143q-33 13 -33 29z" />
<glyph unicode="a" horiz-adv-x="987" d="M68 281q0 137 75 217.5t230 111.5q87 16 229 19v63q0 88 -29 121t-106 33q-93 0 -229 -53q-14 -7 -23 -7q-14 0 -20 21l-43 123q-5 15 -5 22q0 32 114.5 63.5t236.5 31.5q248 0 319 -158q29 -62 29 -170v-418q0 -124 47 -221q6 -12 6 -23q0 -14 -16 -20l-160 -64 q-9 -6 -25 -6q-27 0 -61 121q-61 -63 -121.5 -90t-140.5 -27q-141 0 -224 84.5t-83 225.5zM315 295q0 -60 37.5 -100.5t93.5 -40.5q83 0 156 79v226q-154 0 -220.5 -37.5t-66.5 -126.5z" />
<glyph unicode="b" horiz-adv-x="1062" d="M104 33q0 4 7 18q23 51 31 94t8 121v1139q0 21 4.5 27t25.5 10l191 39q6 2 18 2q21 0 21 -35v-492q73 50 128 70.5t119 20.5q160 0 248 -135t88 -380q0 -142 -27.5 -242.5t-88.5 -176.5q-56 -71 -131.5 -109.5t-159.5 -38.5q-63 0 -109 19.5t-100 70.5q-21 -52 -33 -68 t-27 -16q-8 0 -28 4l-166 41q-19 3 -19 17zM410 207q58 -43 120 -43q94 0 148.5 95.5t54.5 260.5q0 155 -43 237.5t-123 82.5q-37 0 -71.5 -14.5t-85.5 -51.5v-567z" />
<glyph unicode="c" horiz-adv-x="833" d="M68 485q0 261 126.5 411.5t346.5 150.5q94 0 192 -39.5t98 -77.5q0 -11 -6 -23l-71 -131q-7 -14 -19 -14q-9 0 -20 8q-57 41 -92.5 55.5t-81.5 14.5q-105 0 -154 -83t-49 -261q0 -167 49.5 -245.5t155.5 -78.5q82 0 168 57q15 11 22 11q9 0 17 -15l49 -125q6 -16 6 -24 q0 -38 -96.5 -74.5t-200.5 -36.5q-209 0 -324.5 136.5t-115.5 383.5z" />
<glyph unicode="d" horiz-adv-x="1062" d="M68 487q0 152 28.5 257t91.5 180q105 123 261 123q97 0 202 -58v416q0 21 5 27t26 10l190 39l19 2q20 0 20 -35v-1196q0 -62 4.5 -86.5t26.5 -75.5q10 -20 10 -27q0 -12 -18 -18l-170 -68q-12 -6 -21 -6q-15 0 -30.5 29.5t-24.5 75.5q-135 -111 -287 -111 q-160 0 -246.5 136.5t-86.5 385.5zM328 502q0 -179 37 -257.5t122 -78.5q95 0 164 72v565q-73 37 -147 37q-97 0 -136.5 -76t-39.5 -262z" />
<glyph unicode="e" horiz-adv-x="985" d="M68 498q0 248 123 398.5t325 150.5q406 0 406 -560q0 -31 -8.5 -41t-36.5 -10h-551q3 -132 58 -195t169 -63q111 0 233 64q13 8 27 8q13 0 23 -19l51 -122q6 -12 6 -23q0 -17 -16 -29t-68 -34q-134 -58 -283 -58q-195 0 -305 101q-73 67 -113 179.5t-40 252.5zM330 627 h319q-3 127 -37 180t-112 53t-117.5 -53.5t-52.5 -179.5z" />
<glyph unicode="f" horiz-adv-x="720" d="M10 870v113q0 17 7.5 23t27.5 6h156v86q0 104 15 165t52 107q91 113 260 113q94 0 172 -23t78 -51q0 -4 -4 -16l-37 -146q-7 -18 -18 -18q-9 0 -21 6q-65 29 -123 29q-71 0 -98 -43q-10 -17 -13 -39t-3 -84v-86h233q35 0 35 -21q0 -8 -4 -20l-29 -119q-8 -31 -39 -31 h-196v-786q0 -23 -6 -29t-29 -6h-190q-23 0 -29 6t-6 29v786h-156q-26 0 -30.5 6t-4.5 43z" />
<glyph unicode="g" d="M68 510q0 247 101 392t273 145q70 0 122 -21t114 -74q18 44 39 72.5t33 28.5t20 -4l162 -58q18 -9 18 -20q0 -6 -12 -37q-45 -104 -45 -232v-303q0 -167 6 -333q4 -110 4 -129q0 -175 -99.5 -270t-285.5 -95q-130 0 -273 39t-143 74q0 8 4 20l44 141q7 21 22 21 q9 0 18 -6q168 -76 304 -76q86 0 121.5 38.5t35.5 131.5q0 45 -10 133q-109 -76 -238 -76q-155 0 -245 134.5t-90 363.5zM328 520q0 -147 38.5 -224t112.5 -77q95 0 162 70v483q-78 59 -145 59q-82 0 -125 -80t-43 -231z" />
<glyph unicode="h" horiz-adv-x="1099" d="M158 35v1370q0 22 4 27.5t26 9.5l191 39q6 2 18 2q21 0 21 -35v-520q125 119 282 119q74 0 134 -29.5t92 -81.5q23 -38 32 -85t9 -126v-690q0 -23 -6 -29t-29 -6h-191q-23 0 -28.5 6t-5.5 29v631q0 94 -25.5 133t-87.5 39q-46 0 -85.5 -19t-90.5 -65v-719q0 -23 -6 -29 t-29 -6h-190q-23 0 -29 6t-6 29z" />
<glyph unicode="i" horiz-adv-x="606" d="M2 856v121q0 23 6 29t29 6h381q23 0 29 -6t6 -29v-942q0 -23 -6 -29t-29 -6h-191q-23 0 -28.5 6t-5.5 29v786h-156q-23 0 -29 6t-6 29zM150 1315q0 68 49 116t118 48q67 0 115.5 -49t48.5 -117q0 -69 -48.5 -117.5t-117.5 -48.5t-117 49t-48 119z" />
<glyph unicode="j" horiz-adv-x="606" d="M-125 -426q0 4 4 20l45 154q4 14 19 14l16 -4q60 -26 115 -26q42 0 70.5 26t39.5 74q9 49 9 188v801h-156q-23 0 -29 6t-6 29v121q0 23 6 29t29 6h381q23 0 29 -6t6 -29v-957q0 -153 -11 -228.5t-41 -131.5q-38 -69 -115.5 -106t-183.5 -37q-86 0 -156.5 17.5t-70.5 39.5 zM150 1315q0 68 49 116t118 48q67 0 115.5 -49t48.5 -117q0 -69 -48.5 -117.5t-117.5 -48.5t-117 49t-48 119z" />
<glyph unicode="k" d="M158 35v1370q0 21 4.5 27t25.5 10l191 39l18 2q21 0 21 -35v-821l397 399q16 16 25 16q8 0 24 -14l111 -88q16 -13 16 -25q0 -10 -14 -24l-336 -324l377 -454q12 -12 12 -25q0 -14 -20 -25l-162 -90q-14 -8 -21 -8q-12 0 -26 19l-383 491v-440q0 -23 -6 -29t-29 -6h-190 q-23 0 -29 6t-6 29z" />
<glyph unicode="l" horiz-adv-x="569" d="M133 362v1041q0 33 31 39l184 37q20 4 25 4q20 0 20 -35v-1067q0 -119 4 -135q11 -41 52 -41q27 0 67 12q6 2 14 2q14 0 17 -12l41 -168l2 -8q2 -4 2 -8q0 -20 -67 -39t-140 -19q-182 0 -233 148q-12 36 -15.5 77.5t-3.5 171.5z" />
<glyph unicode="m" horiz-adv-x="1593" d="M109 967q0 18 22 24l166 56q4 1 8.5 2t7 1.5t4.5 0.5q36 0 66 -148q86 79 154 111.5t151 32.5q157 0 223 -144q88 79 159 111.5t157 32.5q141 0 196 -103q22 -43 29.5 -92t7.5 -143v-674q0 -23 -6 -29t-29 -6h-188q-23 0 -29 6t-6 29v649q0 87 -20.5 122.5t-71.5 35.5 q-41 0 -81 -20.5t-95 -71.5v-715q0 -23 -6 -29t-29 -6h-186q-23 0 -29 6t-6 29v629q0 102 -19.5 138t-74.5 36q-75 0 -176 -88v-715q0 -23 -6 -29t-29 -6h-187q-23 0 -28.5 6t-5.5 29v688q0 77 -7.5 121t-29.5 100q-6 12 -6 23z" />
<glyph unicode="n" horiz-adv-x="1099" d="M102 967q0 11 17 18l182 68q12 4 21 4q37 0 73 -142q77 71 148 101.5t159 30.5q137 0 201 -78.5t64 -245.5v-688q0 -23 -6 -29t-29 -6h-191q-23 0 -28.5 6t-5.5 29v631q0 91 -27.5 131.5t-89.5 40.5q-44 0 -84 -19t-94 -65v-719q0 -23 -6 -29t-29 -6h-191q-23 0 -28.5 6 t-5.5 29v688q0 133 -43 223q-7 14 -7 21z" />
<glyph unicode="o" d="M68 506q0 249 118 391q66 78 146 114t190 36q201 0 318.5 -145t117.5 -394q0 -251 -119.5 -397t-324.5 -146q-211 0 -328.5 143t-117.5 398zM344 506q0 -178 39.5 -256t128.5 -78q90 0 130 78.5t40 253.5q0 181 -40 258.5t-132 77.5q-88 0 -127 -78.5t-39 -255.5z" />
<glyph unicode="p" horiz-adv-x="1062" d="M106 946q0 11 21 19l178 75q14 7 19 7q13 0 29 -29.5t28 -77.5q63 57 124 82t136 25q173 0 263.5 -135t90.5 -390q0 -557 -374 -557q-61 0 -108 12t-101 41v-370q0 -22 -4.5 -27t-26.5 -10l-191 -41l-20 -2q-10 0 -14 7t-4 26v1126q0 59 -9 102t-32 101q-5 15 -5 16z M412 201q71 -39 143 -39q100 0 140 78t40 274q0 169 -39.5 247.5t-124.5 78.5q-42 0 -78 -17t-81 -57v-565z" />
<glyph unicode="q" d="M66 492q0 258 100.5 406.5t273.5 148.5q131 0 240 -95q51 99 82 99q6 0 24 -7l154 -53q23 -7 23 -22q0 -12 -9 -27q-27 -53 -38 -107t-11 -133v-1048q0 -22 -4.5 -27t-26.5 -10l-190 -41l-20 -2q-19 0 -19 35v436q-102 -80 -227 -80q-167 0 -259.5 138.5t-92.5 388.5z M332 487q0 -325 155 -325q84 0 158 80v522q-72 61 -149 61q-83 0 -123.5 -83t-40.5 -255z" />
<glyph unicode="r" horiz-adv-x="720" d="M86 961q0 13 20 20l166 59q19 7 25 7q19 0 40 -43t38 -117q17 20 31 37t21.5 25.5t16.5 17.5q80 80 187 80q45 0 81 -14.5t36 -31.5q0 -2 -5 -22l-63 -166q-6 -18 -16 -18q-3 0 -15 4q-46 16 -82 16q-67 0 -155 -98v-682q0 -23 -6 -29t-29 -6h-191q-23 0 -28.5 6t-5.5 29 v622q0 87 -12.5 144t-49.5 141q-4 12 -4 19z" />
<glyph unicode="s" horiz-adv-x="872" d="M66 90q0 7 6 25l47 125q9 20 20 20q7 0 19 -6q163 -88 278 -88q54 0 86.5 29.5t32.5 76.5q0 43 -29.5 67t-128.5 62q-94 35 -138.5 59t-74.5 52q-82 79 -82 201q0 147 102.5 240.5t262.5 93.5q97 0 205 -33t108 -62q0 -10 -6 -22l-51 -117q-9 -18 -21 -18q-4 0 -16 4 q-118 53 -207 53q-63 0 -97 -26.5t-34 -77.5q0 -42 25.5 -64.5t109.5 -54.5q113 -44 159 -68t79 -55q84 -84 84 -209q0 -66 -25 -129t-69 -109q-91 -94 -252 -94q-182 0 -348 86q-28 13 -36.5 20.5t-8.5 18.5z" />
<glyph unicode="t" horiz-adv-x="757" d="M27 856v121q0 23 5.5 29t28.5 6h142v258q0 22 5.5 28t27.5 9l188 26h18q21 0 21 -33v-288h233q20 0 27.5 -4.5t7.5 -16.5t-2 -18l-27 -121q-5 -19 -11.5 -25t-24.5 -6h-203v-497q0 -81 15 -106t61 -25q32 0 56 6t79 28q12 4 18 4q14 0 21 -20l32 -143q5 -17 5 -23 q0 -15 -13 -24t-51 -21q-107 -35 -207 -35q-161 0 -231 105q-26 38 -35.5 84t-9.5 133v534h-142q-23 0 -28.5 6t-5.5 29z" />
<glyph unicode="u" horiz-adv-x="1099" d="M133 365v600q0 21 4.5 26t26.5 10l190 41q4 2 17 2q12 0 17 -7t5 -25v-635q0 -113 19 -150q13 -26 41.5 -40.5t64.5 -14.5q81 0 170 74v719q0 21 4.5 26t26.5 10l190 41l21 2q18 0 18 -32v-754q0 -76 8 -120t31 -89q6 -9 6 -18q0 -11 -20 -17l-172 -39q-16 -4 -23 -4 q-36 0 -61 113q-69 -66 -132 -92.5t-151 -26.5q-155 0 -231 88q-43 47 -56.5 108.5t-13.5 203.5z" />
<glyph unicode="v" horiz-adv-x="909" d="M-10 983q0 18 33 21l200 20q14 2 17 2q9 0 14.5 -6t9.5 -23l131 -469q26 -88 68 -295q42 197 72 295l143 469q4 17 9.5 23t14.5 6t17 -2l170 -20q31 -3 31 -21q0 -2 -5 -22l-340 -973q-6 -19 -12 -23t-26 -4h-168q-21 0 -27 4t-12 23l-334 973q-6 15 -6 22z" />
<glyph unicode="w" horiz-adv-x="1366" d="M37 979q0 15 31 20l180 27q2 2 16 2q11 0 16.5 -6t8.5 -23l96 -471q16 -80 43 -321q18 210 37 295l102 479q5 22 10 26.5t27 4.5h184q20 0 26 -5.5t11 -25.5l93 -461q20 -93 40 -313q25 246 46 340l104 452q5 17 9 23t13 6q17 0 19 -2l168 -27q31 -5 31 -22q0 -2 -1 -3.5 t-2.5 -6t-3.5 -11.5l-282 -944q-6 -20 -11.5 -24t-27.5 -4h-170q-22 0 -27.5 4.5t-9.5 27.5l-96 519q-10 59 -15 104l-8 76l-6 49q-24 -172 -37 -229l-121 -521q-4 -21 -9.5 -25.5t-26.5 -4.5h-168q-21 0 -26 4t-11 26l-248 942q-4 18 -4 23z" />
<glyph unicode="x" horiz-adv-x="948" d="M6 55q0 11 12 27l310 430l-273 395q-12 16 -12 25q0 13 27 22l168 64q14 6 22 6q10 0 23 -23l114 -186l21 -37q19 -32 20 -33q4 -7 13.5 -23t17.5 -32q18 29 84 125l129 189q12 20 27 20q5 0 20 -6l166 -62q27 -11 27 -24q0 -8 -13 -25l-284 -395l305 -442q12 -14 12 -27 q0 -11 -29 -20l-172 -52q-14 -4 -20 -4q-12 0 -25 21l-143 219q-56 87 -78 125q-38 -64 -78 -125l-149 -219q-14 -21 -25 -21q-6 0 -22 6l-168 60q-16 6 -21.5 10.5t-5.5 11.5z" />
<glyph unicode="y" horiz-adv-x="909" d="M-10 983q0 18 33 21l208 22h15q9 0 14.5 -6t9.5 -23l136 -503q33 -120 79 -355q8 46 17 95t14 77q7 42 19 95l20 88l115 501q5 19 9 25t13 6t17 -2l180 -20q33 -3 33 -21q0 -6 -4 -20l-205 -750q-4 -14 -35 -135q-51 -213 -81 -292.5t-75 -133.5q-88 -107 -248 -107 q-87 0 -183.5 33t-96.5 64q0 6 8 22l64 131q8 15 18 15q5 0 16 -7q91 -45 158 -45q65 0 99.5 33.5t60.5 122.5l24 86h-86q-21 0 -27 4t-12 23l-321 934q-6 21 -6 22z" />
<glyph unicode="z" horiz-adv-x="872" d="M51 35v141l477 631h-399q-23 0 -29 6t-6 29v135q0 23 6 29t29 6h645q22 0 28.5 -6.5t6.5 -28.5v-150l-463 -612h469q33 0 33 -20q0 -8 -6 -23l-62 -145q-6 -15 -14 -21t-25 -6h-655q-23 0 -29 6t-6 29z" />
<glyph unicode="{" horiz-adv-x="909" d="M129 473v141q0 28 7 34.5t36 6.5h35q76 0 109.5 34t33.5 112v286q0 193 99.5 285t308.5 92q23 0 30 -8t7 -33v-133q0 -27 -7.5 -34t-35.5 -7h-9q-73 0 -106 -34t-33 -109v-315q0 -99 -32 -152.5t-115 -93.5q84 -41 115.5 -95t31.5 -153v-358q0 -75 33 -108.5t106 -33.5h9 q28 0 35.5 -7.5t7.5 -35.5v-131q0 -26 -6.5 -34.5t-28.5 -8.5q-110 0 -182.5 21.5t-126.5 70.5q-53 48 -77 113.5t-24 171.5v330q0 78 -33 111.5t-110 33.5h-35q-28 0 -35.5 7.5t-7.5 33.5z" />
<glyph unicode="|" horiz-adv-x="749" d="M264 -350v1755h221v-1755h-221z" />
<glyph unicode="}" horiz-adv-x="909" d="M115 -246q0 28 7 34.5t36 6.5h8q73 0 106 34.5t33 109.5v315q0 99 32 153t116 95q-83 41 -115.5 95.5t-32.5 152.5v358q0 75 -32.5 108t-106.5 33h-8q-29 0 -36 7t-7 36v131q0 26 6.5 34.5t28.5 8.5q110 0 182.5 -21.5t126.5 -70.5q53 -48 76.5 -113t23.5 -171v-330 q0 -78 32.5 -112t110.5 -34h35q28 0 35.5 -7.5t7.5 -35.5v-139q0 -28 -7.5 -35.5t-35.5 -7.5h-35q-78 0 -110.5 -33.5t-32.5 -111.5v-287q0 -194 -99 -285.5t-308 -91.5q-23 0 -30 8t-7 33v133z" />
<glyph unicode="~" d="M4 598q60 141 134 208.5t171 67.5q43 0 94 -15t140 -56q90 -40 119.5 -50t60.5 -10q44 0 80.5 31t77.5 105l139 -115q-63 -146 -135.5 -212.5t-169.5 -66.5q-36 0 -76 12.5t-145 57.5q-95 42 -127.5 52.5t-65.5 10.5q-46 0 -80.5 -30t-77.5 -107z" />
<glyph unicode="&#xa1;" horiz-adv-x="720" d="M188 772q0 72 51.5 122t125.5 50q69 0 119.5 -51.5t50.5 -122.5q0 -70 -51 -121t-122 -51q-72 0 -123 51t-51 123zM213 -512l2 16l45 826q2 27 9 34t34 7h123q28 0 34.5 -6.5t8.5 -34.5l47 -826v-14q0 -17 -8.5 -23t-32.5 -6h-219q-43 0 -43 23v4z" />
<glyph unicode="&#xa2;" horiz-adv-x="1099" d="M176 670q0 241 107.5 385.5t302.5 167.5v108q0 29 7.5 36t35.5 7h37q28 0 35.5 -7.5t7.5 -35.5v-108q90 -9 160.5 -36.5t70.5 -53.5q0 -9 -6 -19l-76 -141q-7 -10 -12 -10q-9 0 -60 32q-31 17 -77 25v-658q56 5 116 37q12 4 15 4q11 0 14 -10l57 -143q7 -16 7 -21 q0 -25 -64.5 -50.5t-144.5 -33.5v-106q0 -28 -7 -34.5t-36 -6.5h-37q-28 0 -35.5 7.5t-7.5 33.5v102q-75 4 -123 20.5t-96 51.5q-191 141 -191 457zM432 680q0 -145 38 -223.5t116 -98.5v668q-79 -22 -116.5 -105.5t-37.5 -240.5z" />
<glyph unicode="&#xa3;" horiz-adv-x="1099" d="M43 643v102q0 28 7.5 35.5t35.5 7.5h125q-29 98 -29 193q0 186 126.5 297t338.5 111q123 0 244 -41t121 -82q0 -9 -6 -21l-68 -127q-11 -20 -25 -20q-10 0 -49 18q-118 55 -211 55q-103 0 -162 -56.5t-59 -153.5q0 -72 29 -168h282q26 0 33.5 -7.5t7.5 -35.5v-107 q0 -29 -6.5 -36t-34.5 -7h-247q30 -104 30 -201q0 -74 -20 -174h538q41 0 41 -24q0 -9 -4 -25l-37 -141q-8 -35 -45 -35h-890q-29 0 -36 7t-7 36v139q0 28 7.5 35.5t35.5 7.5h143q22 96 22 174q0 89 -26 201h-162q-28 0 -35.5 7.5t-7.5 35.5z" />
<glyph unicode="&#xa4;" horiz-adv-x="1284" d="M125 358q24 23 70.5 68.5t70.5 67.5q-71 110 -71 231q0 128 71 231q-23 23 -70 68.5t-71 69.5q98 98 119 118q23 -22 69.5 -68.5t69.5 -68.5q109 72 238 72t235 -72q23 23 70 69t71 68q20 -19 59 -58.5t58 -59.5q-24 -24 -71 -69.5t-70 -68.5q71 -107 71 -231 q0 -122 -71 -231q24 -22 71 -68t70 -68q-19 -19 -58 -58.5t-59 -59.5q-24 23 -71 68.5t-70 68.5q-107 -72 -235 -72q-132 0 -238 72q-24 -22 -70 -68l-69 -69q-21 20 -119 118zM362 727q0 -105 76 -180.5t183 -75.5q106 0 181 75t75 181q0 107 -78 180.5t-178 73.5 q-108 0 -183.5 -75t-75.5 -179z" />
<glyph unicode="&#xa5;" horiz-adv-x="1099" d="M45 547v20q0 28 7.5 35.5t35.5 7.5h334l-53 105h-281q-28 0 -35.5 7.5t-7.5 35.5v20q0 28 7.5 35.5t35.5 7.5h229l-251 510q-9 27 -9 29q0 11 7.5 16.5t29.5 9.5l185 35l22 2q19 0 29 -30l137 -349q51 -131 100 -294q39 146 105 311l133 332q7 20 12.5 26t16.5 6 q6 0 10 -2l12 -4l154 -37q37 -8 37 -24q0 -9 -11 -31l-241 -506h219q28 0 35.5 -7.5t7.5 -35.5v-20q0 -28 -7.5 -35.5t-35.5 -7.5h-269l-51 -105h320q29 0 36 -7t7 -36v-20q0 -28 -7.5 -35.5t-35.5 -7.5h-336v-461q0 -28 -7.5 -35.5t-35.5 -7.5h-154q-28 0 -35.5 7.5 t-7.5 35.5v461h-350q-28 0 -35.5 7.5t-7.5 35.5z" />
<glyph unicode="&#xa6;" horiz-adv-x="749" d="M264 324h221v-674h-221v674zM264 672v733h221v-733h-221z" />
<glyph unicode="&#xa7;" horiz-adv-x="1099" d="M137 393q0 109 51.5 181.5t163.5 119.5q-82 45 -118.5 102.5t-36.5 137.5q0 139 106 229t270 90t297 -86q29 -17 29 -37q0 -11 -8 -22l-60 -115q-7 -14 -22 -14q-12 0 -25 8q-77 41 -122.5 56.5t-92.5 15.5q-62 0 -98.5 -24.5t-36.5 -65.5q0 -36 27 -56t196 -106 q5 -3 7 -4q100 -50 147 -81t80 -67q72 -78 72 -192q0 -194 -205 -297q83 -46 121.5 -107.5t38.5 -146.5q0 -142 -112 -244t-269 -102q-77 0 -170.5 23.5t-158.5 58t-65 63.5q0 13 7 23l63 125q10 16 18 16q12 0 23 -8q160 -103 289 -103q56 0 88.5 29t32.5 78q0 47 -41.5 81 t-178.5 99q-103 50 -149.5 78.5t-81.5 63.5q-76 73 -76 200zM387 428q0 -46 37 -79t149 -87q74 43 106 82t32 88q0 45 -33.5 77.5t-136.5 88.5q-81 -42 -117.5 -83t-36.5 -87z" />
<glyph unicode="&#xa8;" d="M188 1305q0 60 42 100.5t102 40.5q57 0 98 -41.5t41 -99.5q0 -59 -41.5 -100.5t-99.5 -41.5t-100 41.5t-42 100.5zM551 1305q0 60 41.5 100.5t101.5 40.5q57 0 98.5 -41.5t41.5 -99.5q0 -59 -42 -100.5t-100 -41.5t-99.5 41.5t-41.5 100.5z" />
<glyph unicode="&#xa9;" horiz-adv-x="1513" d="M70 700q0 151 54.5 287t147.5 233.5t222 154.5t272 57q182 0 338.5 -99t248 -267.5t91.5 -363.5q0 -148 -54.5 -283t-146 -232.5t-218.5 -155.5t-267 -58t-267 58t-219.5 155.5t-147 232t-54.5 281.5zM238 702q0 -121 41 -231t111 -189t166 -126t202 -47q140 0 259.5 79 t189 215.5t69.5 296.5q0 164 -69.5 301t-190 216t-264.5 79q-138 0 -256.5 -80t-188 -217t-69.5 -297zM438 715q0 201 91 315.5t249 114.5q74 0 155 -35.5t81 -69.5q0 -7 -6 -16l-54 -88q-10 -16 -24 -16q-13 0 -47 24q-47 35 -97 35q-135 0 -135 -242q0 -159 38 -235 t116 -76q31 0 50.5 7.5t57.5 33.5q8 8 21 8q12 0 24 -18l52 -82q6 -12 6 -19q0 -35 -73 -65.5t-157 -30.5q-170 0 -259 116.5t-89 338.5z" />
<glyph unicode="&#xaa;" horiz-adv-x="606" d="M20 1055q0 113 77.5 163t258.5 54v26q0 48 -16 65t-61 17q-31 0 -56 -5t-90 -25q-12 -4 -18 -4q-17 0 -23 16l-26 74l-3 16q0 26 74 47t166 21q118 0 173.5 -49.5t55.5 -155.5v-246q0 -63 29 -125q4 -16 4 -18q0 -15 -18 -21l-101 -39q-12 -4 -18 -4q-24 0 -43 62 q-41 -33 -76.5 -46.5t-83.5 -13.5q-93 0 -149 52t-56 139zM199 1069q0 -35 19.5 -56.5t51.5 -21.5q45 0 86 41v148q-83 0 -120 -26t-37 -85z" />
<glyph unicode="&#xab;" horiz-adv-x="1214" d="M72 512q0 14 12 29l348 454q18 23 27 23q12 0 30 -12l103 -64q24 -16 24 -27q0 -14 -12 -32l-246 -383l246 -373q12 -21 12 -31t-26 -28l-101 -64q-20 -12 -28 -12q-12 0 -29 24l-348 467q-12 15 -12 29zM541 512q0 14 12 29l348 454q18 23 27 23q12 0 30 -12l103 -64 q26 -16 26 -27t-14 -32l-246 -383l246 -373q12 -18 12 -31q0 -10 -26 -28l-101 -64q-20 -12 -28 -12q-12 0 -29 24l-348 467q-12 15 -12 29z" />
<glyph unicode="&#xac;" d="M45 793v127q0 29 7.5 36t35.5 7h848q28 0 35.5 -7.5t7.5 -35.5v-469q0 -29 -7 -36t-36 -7h-137q-27 0 -34 7t-7 36v299h-670q-26 0 -34.5 8.5t-8.5 34.5z" />
<glyph unicode="&#xad;" horiz-adv-x="757" d="M80 442v162q0 28 7 34.5t36 6.5h512q28 0 35.5 -7.5t7.5 -33.5v-162q0 -28 -7 -34.5t-36 -6.5h-512q-28 0 -35.5 7t-7.5 34z" />
<glyph unicode="&#xae;" horiz-adv-x="907" d="M41 1153q0 184 121.5 311t296.5 127q167 0 287 -128.5t120 -307.5q0 -181 -120.5 -309.5t-290.5 -128.5t-292 128t-122 308zM143 1155q0 -148 91.5 -252t220.5 -104q128 0 219.5 104t91.5 250q0 151 -91.5 254.5t-223.5 103.5q-126 0 -217 -105t-91 -251zM287 940v444 q0 23 22 23h123q96 0 140 -35t44 -110q0 -50 -19 -82.5t-62 -55.5l108 -172q4 -8 4 -14q0 -11 -18 -16l-64 -17q-6 -2 -10 -2q-13 0 -18 12l-105 195h-31v-172q0 -13 -5 -18t-19 -5h-68q-13 0 -17.5 5t-4.5 20zM401 1198h15q47 0 65.5 14.5t18.5 51.5q0 32 -16 43.5 t-60 11.5h-23v-121z" />
<glyph unicode="&#xaf;" d="M260 1260v92q0 29 7 36t36 7h418q28 0 34.5 -7t6.5 -36v-92q0 -28 -6.5 -34.5t-34.5 -6.5h-418q-28 0 -35.5 7.5t-7.5 33.5z" />
<glyph unicode="&#xb0;" horiz-adv-x="1099" d="M227 1116q0 135 95 229.5t233 94.5q129 0 223 -95.5t94 -228.5q0 -134 -94 -227.5t-229 -93.5q-132 0 -227 94t-95 227zM397 1116q0 -64 44.5 -108.5t107.5 -44.5q65 0 109 44.5t44 108.5q0 65 -44.5 109.5t-108.5 44.5q-63 0 -107.5 -45.5t-44.5 -108.5z" />
<glyph unicode="&#xb1;" d="M45 72v129q0 26 7.5 33.5t35.5 7.5h848q28 0 35.5 -7.5t7.5 -33.5v-129q0 -28 -7.5 -35.5t-35.5 -7.5h-848q-28 0 -35.5 7.5t-7.5 35.5zM45 618v130q0 28 7.5 35.5t35.5 7.5h313v317q0 28 7.5 35.5t33.5 7.5h138q28 0 35.5 -7.5t7.5 -35.5v-317h313q28 0 35.5 -7.5 t7.5 -35.5v-130q0 -26 -7.5 -33t-35.5 -7h-313v-218q0 -29 -7 -36t-36 -7h-138q-26 0 -33.5 7.5t-7.5 35.5v218h-313q-28 0 -35.5 6.5t-7.5 33.5z" />
<glyph unicode="&#xb2;" horiz-adv-x="757" d="M104 1513q0 27 21.5 68.5t50.5 67.5q90 80 221 80q127 0 197 -63t70 -179q0 -87 -43.5 -150t-163.5 -145q-78 -54 -109 -87.5t-31 -60.5v-4h299q25 0 32 -6t7 -28v-84q0 -23 -7 -30t-32 -7h-479q-15 0 -21.5 5.5t-6.5 20.5v11q0 127 45 206q26 45 67 80.5t146 110.5 q60 44 88 81.5t28 82.5q0 43 -26 66.5t-72 23.5q-43 0 -71 -21t-54 -75q-14 -27 -33 -27q-2 0 -14 4l-92 33q-17 6 -17 26z" />
<glyph unicode="&#xb3;" horiz-adv-x="757" d="M72 942q0 10 2 14l26 88q7 17 25 17q13 0 25 -4q102 -45 169 -45q66 0 102 30.5t36 87.5q0 58 -38 85.5t-120 27.5h-39q-26 0 -32.5 5.5t-6.5 29.5v78q0 23 6.5 28t32.5 5h41q135 0 135 104q0 40 -27 64t-73 24q-61 0 -109 -57q-14 -17 -26 -17q-8 0 -23 11l-67 53 q-13 10 -13 22q0 18 25 43q93 93 223 93q123 0 197.5 -62t74.5 -162q0 -109 -106 -178h-2q67 -28 103 -81t36 -126q0 -118 -93.5 -187t-221.5 -69q-129 0 -215 41q-47 19 -47 37z" />
<glyph unicode="&#xb4;" d="M408 1290q0 11 26 27l334 199q20 12 29 12q15 0 28 -29l64 -125q10 -20 10 -28q0 -18 -31 -29l-362 -143q-4 -1 -15 -4t-14 -3q-13 0 -26 29l-33 66q-10 18 -10 28z" />
<glyph unicode="&#xb5;" horiz-adv-x="1099" d="M133 -399v1364q0 21 4.5 26t26.5 10l190 41q4 2 17 2q12 0 17 -7t5 -25v-635q0 -113 19 -150q13 -26 41.5 -40.5t64.5 -14.5q81 0 170 74v719q0 21 4.5 26t26.5 10l190 41l21 2q18 0 18 -32v-754q0 -76 8 -120t31 -89q6 -9 6 -18q0 -11 -20 -17l-172 -39q-16 -4 -23 -4 q-36 0 -61 113q-99 -119 -215 -119q-36 0 -109 23v-340q0 -22 -4.5 -27t-26.5 -10l-190 -41l-20 -2q-19 0 -19 33z" />
<glyph unicode="&#xb6;" horiz-adv-x="1366" d="M-2 858q0 375 223 494q61 32 128.5 42.5t205.5 10.5h682q28 0 34.5 -7t6.5 -36v-98q0 -29 -6.5 -36t-34.5 -7h-115v-1559q0 -27 -8.5 -36t-34.5 -9h-125q-25 0 -33 8.5t-8 34.5v1561h-137v-1559q0 -28 -7.5 -35.5t-35.5 -7.5h-125q-28 0 -34.5 7t-6.5 36v668 q-80 -15 -123 -15q-96 0 -180 35t-143 99q-123 135 -123 409zM252 887q0 -205 54.5 -294t180.5 -89q36 0 80 10v707q-178 0 -246.5 -72.5t-68.5 -261.5z" />
<glyph unicode="&#xb7;" horiz-adv-x="606" d="M156 684q0 63 42.5 105t104.5 42q60 0 104 -43t44 -104q0 -60 -43 -102.5t-103 -42.5q-62 0 -105.5 42.5t-43.5 102.5z" />
<glyph unicode="&#xb8;" d="M326 -406l2 19l18 86q4 8 10 8q7 0 11 -2q37 -12 77 -12q62 0 62 47t-80 47q-29 0 -37 5t-8 20v12l18 176h162l-8 -113q147 -15 147 -149q0 -82 -61 -131t-162 -49q-64 0 -107.5 10.5t-43.5 25.5z" />
<glyph unicode="&#xb9;" horiz-adv-x="757" d="M98 1522q0 10 19 22l254 162h94q26 0 32.5 -5.5t6.5 -29.5v-653h84q28 0 33.5 -5.5t5.5 -31.5v-59q0 -26 -5.5 -31.5t-33.5 -5.5h-389q-25 0 -32 7t-7 30v59q0 23 7 30t32 7h114v475l-123 -61q-18 -9 -24 -9q-15 0 -27 19l-33 57q-8 13 -8 23z" />
<glyph unicode="&#xba;" horiz-adv-x="681" d="M49 1194q0 154 79.5 241t219.5 87q131 0 208 -88t77 -240t-78 -241t-213 -89q-138 0 -215.5 87.5t-77.5 242.5zM246 1192q0 -100 22 -143t74 -43q50 0 72 43t22 141q0 104 -21.5 147t-74.5 43q-51 0 -72.5 -44t-21.5 -144z" />
<glyph unicode="&#xbb;" horiz-adv-x="1214" d="M127 98q0 8 14 29l246 373l-246 383q-14 22 -14 32q0 11 27 27l100 64q18 12 31 12q10 0 28 -23l349 -454q10 -13 10 -29t-10 -29l-349 -467q-17 -24 -28 -24q-13 0 -31 12l-100 64q-17 11 -22 16t-5 14zM596 98q0 9 14 29l246 373l-246 383q-14 22 -14 30q0 13 27 29 l102 64q18 12 29 12q10 0 28 -23l348 -454q13 -16 13 -29q0 -11 -13 -29l-348 -467q-17 -24 -28 -24q-9 0 -29 12l-102 64q-17 11 -22 16t-5 14z" />
<glyph unicode="&#xbc;" horiz-adv-x="1783" d="M92 1192q0 12 21 25l235 153h94q24 0 31.5 -7t7.5 -30v-651h82q25 0 32 -6.5t7 -28.5v-61q0 -23 -7 -30t-32 -7h-383q-24 0 -31.5 7t-7.5 30v61q0 22 7.5 28.5t31.5 6.5h113v473l-107 -53q-16 -8 -24 -8q-13 0 -27 20l-33 53q-10 12 -10 25zM457 -59q0 10 8 28l577 1387 q13 30 48 30h104q23 0 32 -5.5t9 -20.5q0 -4 -8 -25l-576 -1380q-15 -37 -47 -37h-104q-43 0 -43 23zM1059 193v129l327 499q15 21 27 21q11 0 23 -6l77 -29q29 -10 29 -27q0 -8 -10 -24l-295 -455h174l16 182q2 20 9 26.5t30 6.5h88q23 0 31 -7.5t8 -29.5v-182h64 q25 0 32 -7t7 -30v-67q0 -22 -7.5 -28.5t-31.5 -6.5h-64v-144q0 -23 -7 -30t-32 -7h-108q-24 0 -31.5 7t-7.5 30v144h-309q-25 0 -32 6.5t-7 28.5z" />
<glyph unicode="&#xbd;" horiz-adv-x="1783" d="M86 1192q0 12 20 25l236 153h94q24 0 31.5 -7t7.5 -30v-651h82q25 0 32 -6.5t7 -28.5v-61q0 -23 -7 -30t-32 -7h-383q-24 0 -31.5 7t-7.5 30v61q0 22 7.5 28.5t31.5 6.5h113v473l-107 -53q-16 -8 -24 -8q-13 0 -27 20l-33 53q-10 12 -10 25zM444 -59q0 7 9 28l577 1387 q13 30 45 30h107q22 0 30.5 -5.5t8.5 -20.5q0 -8 -7 -25l-575 -1380q-15 -37 -49 -37h-105q-41 0 -41 23zM1102 627q0 22 22.5 63t51.5 70q82 82 219 82q123 0 192.5 -63.5t69.5 -176.5q0 -122 -80 -199q-30 -30 -51.5 -46.5t-122.5 -86.5q-85 -62 -88 -114h295 q24 0 31.5 -6.5t7.5 -28.5v-86q0 -22 -7.5 -28.5t-31.5 -6.5h-473q-29 0 -29 29v8q0 76 9 119t34 84q29 50 69 86t144 108q65 46 89 80.5t24 81.5q0 90 -97 90q-44 0 -69 -19.5t-54 -76.5q-13 -25 -28 -25q-8 0 -31 8l-72 25q-24 9 -24 29z" />
<glyph unicode="&#xbe;" horiz-adv-x="1783" d="M70 602q0 7 6 25l24 78q7 20 23 20q10 0 47 -16q79 -33 145 -33t101 30t35 87t-36 82.5t-118 25.5h-39q-23 0 -31 7.5t-8 29.5v80q0 22 7.5 28.5t31.5 6.5h41q67 0 99 24.5t32 77.5q0 40 -26 64t-70 24q-57 0 -111 -57q-14 -17 -24 -17q-9 0 -21 9l-69 57q-13 13 -13 22 q0 17 31 48q86 86 215 86q121 0 195.5 -62.5t74.5 -163.5q0 -60 -23.5 -99.5t-80.5 -76.5q71 -32 103 -81t32 -124q0 -114 -87.5 -186t-225.5 -72q-86 0 -173 25.5t-87 50.5zM489 -59q0 11 7 28l577 1387q13 30 47 30h105q23 0 32 -5t9 -19q0 -9 -6 -27l-576 -1380 q-15 -37 -49 -37h-105q-41 0 -41 23zM1075 193v129l328 499q15 21 27 21q10 0 22 -6l78 -29q29 -10 29 -27q0 -6 -11 -24l-295 -455h174l17 182q2 20 9 26.5t30 6.5h88q23 0 31 -7.5t8 -29.5v-182h63q25 0 32 -7t7 -30v-67q0 -22 -7.5 -28.5t-31.5 -6.5h-63v-144 q0 -23 -7 -30t-32 -7h-109q-24 0 -31.5 7t-7.5 30v144h-309q-25 0 -32 6.5t-7 28.5z" />
<glyph unicode="&#xbf;" d="M119 -156q0 143 79 230.5t259 144.5v139q0 28 7.5 35.5t33.5 7.5h145q28 0 35.5 -7.5t7.5 -35.5v-256q0 -23 -8 -31t-39 -16q-266 -61 -266 -213q0 -71 50 -109t142 -38q97 0 226 57q30 12 34 12q14 0 21 -20l53 -139q4 -16 4 -23q0 -24 -62 -52.5t-153 -48.5t-166 -20 q-181 0 -292 105.5t-111 277.5zM393 795q0 72 51 122t125 50q69 0 119.5 -51t50.5 -123q0 -71 -51 -121.5t-123 -50.5t-122 51t-50 123z" />
<glyph unicode="&#xc0;" horiz-adv-x="1138" d="M8 23q0 2 6 26l404 1321q8 25 14 30t31 5h213q25 0 31 -5t14 -30l403 -1321q6 -21 6 -26q0 -12 -8.5 -17.5t-31.5 -5.5h-224q-27 0 -34 5.5t-13 29.5l-88 336h-346l-88 -336q-6 -25 -12.5 -30t-32.5 -5h-203q-41 0 -41 23zM176 1663q0 9 8 27l56 129q13 32 26 32 q8 0 31 -10l358 -166q18 -9 24.5 -14.5t6.5 -13.5q0 -7 -8 -27l-27 -68q-9 -21 -14 -26.5t-16 -5.5q-7 0 -25 6l-385 110q-35 10 -35 27zM416 563h262l-76 350q-16 74 -51 277q-24 -156 -53 -277z" />
<glyph unicode="&#xc1;" horiz-adv-x="1138" d="M8 23q0 2 6 26l404 1321q8 25 14 30t31 5h213q25 0 31 -5t14 -30l403 -1321q6 -21 6 -26q0 -12 -8.5 -17.5t-31.5 -5.5h-224q-27 0 -34 5.5t-13 29.5l-88 336h-346l-88 -336q-6 -25 -12.5 -30t-32.5 -5h-203q-41 0 -41 23zM416 563h262l-76 350q-16 74 -51 277 q-24 -156 -53 -277zM453 1647q0 14 30 28l359 166q23 10 30 10q15 0 27 -32l55 -129q9 -24 9 -27q0 -17 -35 -27l-385 -110q-20 -6 -27 -6q-10 0 -15 5.5t-14 26.5l-26 68q-8 16 -8 27z" />
<glyph unicode="&#xc2;" horiz-adv-x="1138" d="M8 23q0 2 6 26l404 1321q8 25 14 30t31 5h213q25 0 31 -5t14 -30l403 -1321q6 -21 6 -26q0 -12 -8.5 -17.5t-31.5 -5.5h-224q-27 0 -34 5.5t-13 29.5l-88 336h-346l-88 -336q-6 -25 -12.5 -30t-32.5 -5h-203q-41 0 -41 23zM264 1626q0 12 23 29l254 172q12 8 30 8 q17 0 29 -8l256 -178q18 -9 18 -25q0 -10 -12 -29l-41 -63q-17 -25 -28 -25q-6 0 -31 11l-193 88l-194 -88q-22 -11 -33 -11q-13 0 -27 25l-39 63q-12 19 -12 31zM416 563h262l-76 350q-16 74 -51 277q-24 -156 -53 -277z" />
<glyph unicode="&#xc3;" horiz-adv-x="1138" d="M8 23q0 2 6 26l404 1321q8 25 14 30t31 5h213q25 0 31 -5t14 -30l403 -1321q6 -21 6 -26q0 -12 -8.5 -17.5t-31.5 -5.5h-224q-27 0 -34 5.5t-13 29.5l-88 336h-346l-88 -336q-6 -25 -12.5 -30t-32.5 -5h-203q-41 0 -41 23zM242 1626q0 24 47 90q38 57 76 80t94 23 q64 0 149 -50q42 -24 68 -24q20 0 34.5 12.5t39.5 50.5q6 11 16 11q4 0 16 -7l97 -47q16 -6 16 -18q0 -20 -43 -82q-41 -61 -82 -86t-98 -25q-33 0 -62.5 11.5t-77.5 42.5q-35 22 -61 22q-43 0 -78 -59q-8 -19 -18 -19q-5 0 -19 9l-98 47q-16 8 -16 18zM416 563h262l-76 350 q-16 74 -51 277q-24 -156 -53 -277z" />
<glyph unicode="&#xc4;" horiz-adv-x="1138" d="M8 23q0 2 6 26l404 1321q8 25 14 30t31 5h213q25 0 31 -5t14 -30l403 -1321q6 -21 6 -26q0 -12 -8.5 -17.5t-31.5 -5.5h-224q-27 0 -34 5.5t-13 29.5l-88 336h-346l-88 -336q-6 -25 -12.5 -30t-32.5 -5h-203q-41 0 -41 23zM236 1681q0 60 43 103t106 43q58 0 100.5 -43.5 t42.5 -102.5q0 -61 -42.5 -104t-102.5 -43q-61 0 -104 43t-43 104zM416 563h262l-76 350q-16 74 -51 277q-24 -156 -53 -277zM610 1681q0 60 43.5 103t106.5 43q58 0 100.5 -43.5t42.5 -102.5q0 -61 -42.5 -104t-102.5 -43q-62 0 -105 43t-43 104z" />
<glyph unicode="&#xc5;" horiz-adv-x="1138" d="M8 23q0 2 6 26l404 1321q8 25 14 30t31 5h213q25 0 31 -5t14 -30l403 -1321q6 -21 6 -26q0 -12 -8.5 -17.5t-31.5 -5.5h-224q-27 0 -34 5.5t-13 29.5l-88 336h-346l-88 -336q-6 -25 -12.5 -30t-32.5 -5h-203q-41 0 -41 23zM348 1747q0 92 64.5 156.5t158.5 64.5 q89 0 154.5 -65t65.5 -156t-65.5 -156t-156.5 -65q-92 0 -156.5 64.5t-64.5 156.5zM416 563h262l-76 350q-16 74 -51 277q-24 -156 -53 -277zM479 1747q0 -37 26.5 -63.5t63.5 -26.5q35 0 61.5 26.5t26.5 63.5q0 38 -26 64t-64 26q-35 0 -61.5 -26.5t-26.5 -63.5z" />
<glyph unicode="&#xc6;" horiz-adv-x="1517" d="M-45 25q0 8 8 26l565 1323q9 23 15.5 27t31.5 4h857q23 0 32 -5.5t9 -19.5q0 -7 -5 -22l-32 -141q-5 -20 -14 -27.5t-31 -7.5h-408v-336h352q28 0 35.5 -7.5t7.5 -35.5v-137q0 -28 -7.5 -35.5t-35.5 -7.5h-352v-400h440q28 0 35.5 -7.5t7.5 -35.5v-137q0 -28 -7.5 -35.5 t-35.5 -7.5h-669q-26 0 -33.5 7.5t-7.5 35.5v328h-344l-131 -338q-8 -19 -18 -26t-30 -7h-194q-41 0 -41 25zM428 563h285v426q0 199 2 287q-38 -106 -51 -139q-5 -15 -11.5 -30t-13 -30.5t-8.5 -21.5l-29 -68z" />
<glyph unicode="&#xc7;" horiz-adv-x="983" d="M82 725q0 365 162 553q66 78 157 120t195 42q167 0 309 -105q43 -32 43 -51q0 -6 -4 -14l-74 -152q-10 -18 -20 -18q-8 0 -17 5.5t-49 33.5q-89 63 -172 63q-235 0 -235 -438q0 -306 80 -457q26 -49 75 -76.5t111 -27.5q52 0 96.5 17.5t98.5 58.5q13 10 20 10q8 0 16 -15 l72 -151q6 -10 6 -19q0 -28 -57 -63q-112 -66 -231 -74l-7 -84q75 -7 113.5 -46t38.5 -105q0 -86 -62 -136.5t-167 -50.5q-72 0 -115 11t-43 28q0 5 4 17l18 88q0 8 11 8q6 0 10 -2q45 -10 80 -10q63 0 63 47q0 46 -84 49q-29 0 -37 4t-8 16q0 9 2 17l15 157 q-153 35 -236 127q-86 95 -132 255.5t-46 367.5z" />
<glyph unicode="&#xc8;" horiz-adv-x="987" d="M174 43v1319q0 29 7 36t36 7h684q41 0 41 -23q0 -6 -4 -26l-41 -139q-6 -21 -15 -28t-30 -7h-397v-336h342q28 0 35.5 -7.5t7.5 -35.5v-137q0 -28 -7.5 -35.5t-35.5 -7.5h-342v-400h430q28 0 35.5 -7.5t7.5 -35.5v-137q0 -29 -7 -36t-36 -7h-668q-29 0 -36 7t-7 36z M207 1677q0 9 8 27l55 129q13 33 27 33q6 0 31 -11l358 -165q31 -15 31 -29q0 -7 -8 -27l-27 -67q-9 -21 -14.5 -27t-16.5 -6q-6 0 -24 6l-385 111q-35 10 -35 26z" />
<glyph unicode="&#xc9;" horiz-adv-x="987" d="M174 43v1319q0 29 7 36t36 7h684q41 0 41 -23q0 -6 -4 -26l-41 -139q-6 -21 -15 -28t-30 -7h-397v-336h342q28 0 35.5 -7.5t7.5 -35.5v-137q0 -28 -7.5 -35.5t-35.5 -7.5h-342v-400h430q28 0 35.5 -7.5t7.5 -35.5v-137q0 -29 -7 -36t-36 -7h-668q-29 0 -36 7t-7 36z M371 1661q0 15 30 29l359 165q25 11 31 11q14 0 26 -33l55 -129q9 -24 9 -27q0 -16 -35 -26l-385 -111q-20 -6 -27 -6q-9 0 -14 6t-14 27l-27 67q-8 16 -8 27z" />
<glyph unicode="&#xca;" horiz-adv-x="987" d="M174 43v1319q0 29 7 36t36 7h684q41 0 41 -23q0 -6 -4 -26l-41 -139q-6 -21 -15 -28t-30 -7h-397v-336h342q28 0 35.5 -7.5t7.5 -35.5v-137q0 -28 -7.5 -35.5t-35.5 -7.5h-342v-400h430q28 0 35.5 -7.5t7.5 -35.5v-137q0 -29 -7 -36t-36 -7h-668q-29 0 -36 7t-7 36z M231 1626q0 12 23 29l254 172q12 8 31 8q16 0 28 -8l256 -178q19 -9 19 -25q0 -8 -13 -29l-41 -63q-17 -25 -28 -25q-6 0 -31 11l-192 88l-195 -88q-22 -11 -33 -11q-12 0 -26 25l-39 63q-13 21 -13 31z" />
<glyph unicode="&#xcb;" horiz-adv-x="987" d="M174 43v1319q0 29 7 36t36 7h684q41 0 41 -23q0 -6 -4 -26l-41 -139q-6 -21 -15 -28t-30 -7h-397v-336h342q28 0 35.5 -7.5t7.5 -35.5v-137q0 -28 -7.5 -35.5t-35.5 -7.5h-342v-400h430q28 0 35.5 -7.5t7.5 -35.5v-137q0 -29 -7 -36t-36 -7h-668q-29 0 -36 7t-7 36z M229 1681q0 60 43.5 103t106.5 43q58 0 100.5 -43.5t42.5 -102.5q0 -61 -42.5 -104t-102.5 -43q-62 0 -105 43t-43 104zM604 1681q0 60 43.5 103t106.5 43q58 0 100.5 -43.5t42.5 -102.5q0 -61 -42.5 -104t-102.5 -43q-62 0 -105 43t-43 104z" />
<glyph unicode="&#xcc;" horiz-adv-x="720" d="M-33 1663q0 9 8 27l56 129q13 32 26 32q8 0 31 -10l358 -166q18 -9 24.5 -14.5t6.5 -13.5q0 -7 -8 -27l-27 -68q-9 -21 -14 -26.5t-16 -5.5q-7 0 -25 6l-385 110q-35 10 -35 27zM68 43v117q0 28 7.5 35.5t35.5 7.5h110v999h-110q-28 0 -35.5 7.5t-7.5 35.5v117q0 29 7 36 t36 7h501q28 0 35.5 -7.5t7.5 -35.5v-117q0 -28 -7.5 -35.5t-35.5 -7.5h-110v-999h110q28 0 35.5 -7.5t7.5 -35.5v-117q0 -28 -7.5 -35.5t-35.5 -7.5h-501q-29 0 -36 7t-7 36z" />
<glyph unicode="&#xcd;" horiz-adv-x="720" d="M68 43v117q0 28 7.5 35.5t35.5 7.5h110v999h-110q-28 0 -35.5 7.5t-7.5 35.5v117q0 29 7 36t36 7h501q28 0 35.5 -7.5t7.5 -35.5v-117q0 -28 -7.5 -35.5t-35.5 -7.5h-110v-999h110q28 0 35.5 -7.5t7.5 -35.5v-117q0 -28 -7.5 -35.5t-35.5 -7.5h-501q-29 0 -36 7t-7 36z M244 1647q0 14 30 28l359 166q23 10 31 10t13.5 -6.5t12.5 -25.5l55 -129q9 -24 9 -27q0 -17 -35 -27l-385 -110q-20 -6 -27 -6q-9 0 -14 5.5t-14 26.5l-27 68q-8 16 -8 27z" />
<glyph unicode="&#xce;" horiz-adv-x="720" d="M55 1626q0 12 23 29l254 172q12 8 30 8q17 0 29 -8l256 -178q19 -9 19 -25q0 -8 -13 -29l-41 -63q-17 -25 -28 -25q-6 0 -31 11l-193 88l-194 -88q-22 -11 -33 -11q-13 0 -27 25l-38 63q-13 21 -13 31zM68 43v117q0 28 7.5 35.5t35.5 7.5h110v999h-110q-28 0 -35.5 7.5 t-7.5 35.5v117q0 29 7 36t36 7h501q28 0 35.5 -7.5t7.5 -35.5v-117q0 -28 -7.5 -35.5t-35.5 -7.5h-110v-999h110q28 0 35.5 -7.5t7.5 -35.5v-117q0 -28 -7.5 -35.5t-35.5 -7.5h-501q-29 0 -36 7t-7 36z" />
<glyph unicode="&#xcf;" horiz-adv-x="720" d="M27 1681q0 60 43 103t106 43q58 0 100.5 -43.5t42.5 -102.5q0 -61 -42.5 -104t-102.5 -43q-62 0 -104.5 43t-42.5 104zM68 43v117q0 28 7.5 35.5t35.5 7.5h110v999h-110q-28 0 -35.5 7.5t-7.5 35.5v117q0 29 7 36t36 7h501q28 0 35.5 -7.5t7.5 -35.5v-117 q0 -28 -7.5 -35.5t-35.5 -7.5h-110v-999h110q28 0 35.5 -7.5t7.5 -35.5v-117q0 -28 -7.5 -35.5t-35.5 -7.5h-501q-29 0 -36 7t-7 36zM401 1681q0 60 43.5 103t106.5 43q58 0 100.5 -43.5t42.5 -102.5q0 -61 -42.5 -104t-102.5 -43q-62 0 -105 43t-43 104z" />
<glyph unicode="&#xd0;" horiz-adv-x="1214" d="M29 682v96q0 28 7.5 35.5t35.5 7.5h100v541q0 28 7.5 35.5t33.5 7.5h324q149 0 215 -12q194 -37 287.5 -206.5t93.5 -484.5q0 -519 -261 -651q-61 -32 -124 -41.5t-211 -9.5h-324q-26 0 -33.5 7.5t-7.5 35.5v596h-100q-29 0 -36 7.5t-7 35.5zM453 223h71q88 0 139 12 t85 41q55 44 79.5 141.5t24.5 268.5q0 199 -31.5 304t-103.5 151q-38 25 -76.5 33t-116.5 8h-71v-361h204q29 0 36 -7t7 -36v-96q0 -29 -7 -36t-36 -7h-204v-416z" />
<glyph unicode="&#xd1;" horiz-adv-x="1251" d="M150 43v1319q0 29 7 36t36 7h159q29 0 37.5 -5t22.5 -30l323 -602q69 -126 131 -315q-4 156 -4 258v651q0 28 7.5 35.5t35.5 7.5h154q29 0 36 -7t7 -36v-1319q0 -29 -7 -36t-36 -7h-131q-28 0 -38.5 6.5t-23.5 32.5l-352 663q-81 152 -131 291q6 -143 6 -250v-700 q0 -28 -7.5 -35.5t-35.5 -7.5h-153q-29 0 -36 7t-7 36zM326 1626q0 24 47 90q38 57 76 80t94 23q64 0 149 -50q42 -24 68 -24q20 0 34.5 12.5t39.5 50.5q6 11 16 11q4 0 16 -7l97 -47q16 -6 16 -18q0 -20 -43 -82q-41 -61 -82 -86t-98 -25q-33 0 -62.5 11.5t-77.5 42.5 q-35 22 -61 22q-43 0 -78 -59q-8 -19 -18 -19q-5 0 -19 9l-98 47q-16 8 -16 18z" />
<glyph unicode="&#xd2;" horiz-adv-x="1175" d="M82 709q0 224 43 368t137 236q133 127 336 127q101 0 194.5 -39.5t151.5 -106.5q152 -174 152 -575q0 -375 -129.5 -564.5t-384.5 -189.5q-500 0 -500 744zM197 1663q0 9 8 27l55 129q13 32 27 32q7 0 30 -10l359 -166q18 -9 24.5 -14.5t6.5 -13.5q0 -5 -9 -27l-26 -68 q-9 -21 -14.5 -26.5t-16.5 -5.5q-7 0 -25 6l-385 110q-34 10 -34 27zM377 700q0 -514 211 -514q213 0 213 510q0 268 -52.5 395.5t-162.5 127.5q-101 0 -155 -133.5t-54 -385.5z" />
<glyph unicode="&#xd3;" horiz-adv-x="1175" d="M82 709q0 224 43 368t137 236q133 127 336 127q101 0 194.5 -39.5t151.5 -106.5q152 -174 152 -575q0 -375 -129.5 -564.5t-384.5 -189.5q-500 0 -500 744zM377 700q0 -514 211 -514q213 0 213 510q0 268 -52.5 395.5t-162.5 127.5q-101 0 -155 -133.5t-54 -385.5z M471 1647q0 8 6.5 13.5t24.5 14.5l358 166q23 10 31 10q15 0 27 -32l55 -129q8 -21 8 -27q0 -17 -35 -27l-385 -110q-20 -6 -26 -6q-10 0 -15 5.5t-14 26.5l-27 68q-8 16 -8 27z" />
<glyph unicode="&#xd4;" horiz-adv-x="1175" d="M82 709q0 224 43 368t137 236q133 127 336 127q101 0 194.5 -39.5t151.5 -106.5q152 -174 152 -575q0 -375 -129.5 -564.5t-384.5 -189.5q-500 0 -500 744zM285 1626q0 12 22 29l254 172q12 8 31 8q17 0 29 -8l256 -178q18 -9 18 -25q0 -10 -12 -29l-41 -63 q-17 -25 -29 -25q-6 0 -31 11l-192 88l-195 -88q-22 -11 -33 -11q-12 0 -26 25l-39 63q-12 19 -12 31zM377 700q0 -514 211 -514q213 0 213 510q0 268 -52.5 395.5t-162.5 127.5q-101 0 -155 -133.5t-54 -385.5z" />
<glyph unicode="&#xd5;" horiz-adv-x="1175" d="M82 709q0 224 43 368t137 236q133 127 336 127q101 0 194.5 -39.5t151.5 -106.5q152 -174 152 -575q0 -375 -129.5 -564.5t-384.5 -189.5q-500 0 -500 744zM262 1626q0 24 47 90q38 57 76 80t94 23q65 0 150 -50q42 -24 67 -24q20 0 34.5 12.5t39.5 50.5q6 11 16 11 q5 0 17 -7l96 -47q16 -6 16 -18q0 -20 -43 -82q-41 -61 -82 -86t-98 -25q-33 0 -62 11.5t-77 42.5q-35 22 -61 22q-43 0 -78 -59q-8 -19 -19 -19q-5 0 -18 9l-98 47q-17 8 -17 18zM377 700q0 -514 211 -514q213 0 213 510q0 268 -52.5 395.5t-162.5 127.5 q-101 0 -155 -133.5t-54 -385.5z" />
<glyph unicode="&#xd6;" horiz-adv-x="1175" d="M82 709q0 224 43 368t137 236q133 127 336 127q101 0 194.5 -39.5t151.5 -106.5q152 -174 152 -575q0 -375 -129.5 -564.5t-384.5 -189.5q-500 0 -500 744zM254 1681q0 60 43 103t106 43q58 0 101 -43.5t43 -102.5q0 -61 -43 -104t-103 -43q-61 0 -104 43t-43 104z M377 700q0 -514 211 -514q213 0 213 510q0 268 -52.5 395.5t-162.5 127.5q-101 0 -155 -133.5t-54 -385.5zM629 1681q0 60 43 103t106 43q58 0 101 -43.5t43 -102.5q0 -61 -43 -104t-103 -43q-62 0 -104.5 43t-42.5 104z" />
<glyph unicode="&#xd7;" d="M115 936q0 13 18 31l96 96q20 18 31 18q14 0 29 -18l225 -229l221 227q18 18 29 18q15 0 31 -18l92 -92q18 -18 18 -29q0 -15 -16 -31l-230 -221l230 -225q20 -17 20 -29q0 -13 -18 -31l-96 -96q-21 -18 -31 -18q-14 0 -29 18l-225 230l-221 -226q-20 -20 -29 -20 q-13 0 -31 18l-92 92q-18 18 -18 31t16 29l230 221l-230 225q-20 17 -20 29z" />
<glyph unicode="&#xd8;" horiz-adv-x="1175" d="M76 -74q0 12 10 29l111 209q-62 105 -89.5 230.5t-27.5 305.5q0 215 38 352t126 238q132 150 340 150q140 0 252 -62l63 121q15 29 29 29q10 0 28 -10l64 -33q29 -15 29 -27q0 -13 -11 -31l-80 -153q71 -102 103.5 -238.5t32.5 -335.5q0 -369 -127 -552t-383 -183 q-160 0 -275 76l-84 -158q-9 -18 -13.5 -23t-12.5 -5q-11 0 -31 10l-64 33q-28 14 -28 28zM344 698q0 -110 21 -292l358 759q-55 64 -139 64q-116 0 -178 -137.5t-62 -393.5zM440 254q61 -78 150 -78q239 0 239 531q0 156 -22 325z" />
<glyph unicode="&#xd9;" horiz-adv-x="1251" d="M135 475v887q0 29 7 36t36 7h195q28 0 35.5 -7.5t7.5 -35.5v-887q0 -101 8 -143t33 -74q54 -72 168 -72q121 0 174 66.5t53 218.5v891q0 28 7.5 35.5t35.5 7.5h184q29 0 36 -7t7 -36v-887q0 -135 -24.5 -214.5t-87.5 -145.5q-144 -150 -406 -150q-284 0 -399 178 q-37 59 -53.5 136t-16.5 196zM233 1663q0 7 9 27l55 129q13 32 27 32q7 0 30 -10l359 -166q30 -14 30 -28q0 -7 -8 -27l-26 -68q-9 -21 -14.5 -26.5t-16.5 -5.5q-7 0 -25 6l-385 110q-35 10 -35 27z" />
<glyph unicode="&#xda;" horiz-adv-x="1251" d="M135 475v887q0 29 7 36t36 7h195q28 0 35.5 -7.5t7.5 -35.5v-887q0 -101 8 -143t33 -74q54 -72 168 -72q121 0 174 66.5t53 218.5v891q0 28 7.5 35.5t35.5 7.5h184q29 0 36 -7t7 -36v-887q0 -135 -24.5 -214.5t-87.5 -145.5q-144 -150 -406 -150q-284 0 -399 178 q-37 59 -53.5 136t-16.5 196zM510 1647q0 8 6.5 13.5t24.5 14.5l358 166q23 10 31 10t13.5 -6.5t12.5 -25.5l56 -129q8 -21 8 -27q0 -17 -35 -27l-385 -110q-20 -6 -27 -6q-9 0 -14 5.5t-14 26.5l-27 68q-8 16 -8 27z" />
<glyph unicode="&#xdb;" horiz-adv-x="1251" d="M135 475v887q0 29 7 36t36 7h195q28 0 35.5 -7.5t7.5 -35.5v-887q0 -101 8 -143t33 -74q54 -72 168 -72q121 0 174 66.5t53 218.5v891q0 28 7.5 35.5t35.5 7.5h184q29 0 36 -7t7 -36v-887q0 -135 -24.5 -214.5t-87.5 -145.5q-144 -150 -406 -150q-284 0 -399 178 q-37 59 -53.5 136t-16.5 196zM322 1626q0 12 22 29l254 172q12 8 31 8q16 0 28 -8l256 -178q19 -9 19 -25q0 -10 -12 -29l-41 -63q-17 -25 -29 -25q-6 0 -31 11l-192 88l-195 -88q-22 -11 -33 -11q-12 0 -26 25l-39 63q-12 19 -12 31z" />
<glyph unicode="&#xdc;" horiz-adv-x="1251" d="M135 475v887q0 29 7 36t36 7h195q28 0 35.5 -7.5t7.5 -35.5v-887q0 -101 8 -143t33 -74q54 -72 168 -72q121 0 174 66.5t53 218.5v891q0 28 7.5 35.5t35.5 7.5h184q29 0 36 -7t7 -36v-887q0 -135 -24.5 -214.5t-87.5 -145.5q-144 -150 -406 -150q-284 0 -399 178 q-37 59 -53.5 136t-16.5 196zM295 1681q0 60 43 103t106 43q58 0 101 -43.5t43 -102.5q0 -61 -43 -104t-103 -43q-62 0 -104.5 43t-42.5 104zM670 1681q0 60 43 103t106 43q58 0 101 -43.5t43 -102.5q0 -61 -43 -104t-103 -43q-61 0 -104 43t-43 104z" />
<glyph unicode="&#xdd;" horiz-adv-x="987" d="M-43 1360q0 21 39 26l213 35q14 4 20 4q11 0 16.5 -5t14.5 -25l164 -348q28 -58 86 -226q39 136 90 240l160 336q12 28 26 28q9 0 15 -2l10 -2l182 -39q35 -8 35 -26q0 -12 -10 -29l-377 -752v-532q0 -28 -7.5 -35.5t-35.5 -7.5h-195q-29 0 -36 7t-7 36v535l-393 753 q-10 20 -10 29zM412 1661q0 15 30 29l359 165q25 11 30 11q15 0 27 -33l55 -129q9 -24 9 -27q0 -16 -35 -26l-385 -111q-20 -6 -27 -6q-9 0 -14.5 6t-14.5 27l-26 67q-8 16 -8 27z" />
<glyph unicode="&#xde;" horiz-adv-x="1062" d="M174 43v1319q0 28 7.5 35.5t35.5 7.5h195q28 0 35.5 -7.5t7.5 -35.5v-174h94q225 0 321 -58q73 -44 114.5 -131.5t41.5 -197.5q0 -207 -127.5 -333t-339.5 -126h-104v-299q0 -29 -7 -36t-36 -7h-195q-29 0 -36 7t-7 36zM455 573h57q135 0 189.5 47.5t54.5 165.5 q0 109 -48 151t-173 42h-80v-406z" />
<glyph unicode="&#xdf;" horiz-adv-x="1214" d="M137 35v979q0 129 22.5 205t78.5 135q125 131 358 131q187 0 295 -80.5t108 -218.5q0 -72 -30.5 -125.5t-118.5 -138.5q-34 -32 -45.5 -52t-11.5 -45v-1q0 -32 13 -49q17 -24 136 -119l1 -1l1 -1h1l1 -1l1 -1l1 -1h1l1 -1l1 -1l1 -1l1 -1h1l1 -1l1 -1l1 -1l1 -1 q118 -95 159.5 -165.5t41.5 -176.5q0 -157 -94.5 -245.5t-261.5 -88.5q-58 0 -130 13t-116 32q-18 7 -23.5 13.5t-5.5 17.5l2 20l35 134q3 14 19 14q11 0 24 -8q102 -47 191 -47q59 0 91 30.5t32 87.5q0 54 -28 91.5t-128 115.5q-76 59 -107 87.5t-53 58.5q-47 63 -47 147 q0 60 26.5 111t94.5 121q44 46 60 76.5t16 70.5q0 63 -42 97t-120 34q-52 0 -96 -17t-66 -46q-22 -28 -28.5 -64t-6.5 -121v-1001q0 -23 -6 -29t-29 -6h-190q-23 0 -29 6t-6 29z" />
<glyph unicode="&#xe0;" horiz-adv-x="987" d="M68 281q0 137 75 217.5t230 111.5q87 16 229 19v63q0 88 -29 121t-106 33q-93 0 -229 -53q-14 -7 -23 -7q-14 0 -20 21l-43 123q-5 15 -5 22q0 32 114.5 63.5t236.5 31.5q248 0 319 -158q29 -62 29 -170v-418q0 -124 47 -221q6 -12 6 -23q0 -14 -16 -20l-160 -64 q-9 -6 -25 -6q-27 0 -61 121q-61 -63 -121.5 -90t-140.5 -27q-141 0 -224 84.5t-83 225.5zM168 1346q0 8 10 28l64 125q15 29 28 29q9 0 29 -12l334 -199q26 -16 26 -29q0 -11 -10 -26l-31 -66q-13 -29 -28 -29q-3 0 -7.5 1.5t-10.5 3t-9 2.5l-362 143q-33 13 -33 29z M315 295q0 -60 37.5 -100.5t93.5 -40.5q83 0 156 79v226q-154 0 -220.5 -37.5t-66.5 -126.5z" />
<glyph unicode="&#xe1;" horiz-adv-x="987" d="M68 281q0 137 75 217.5t230 111.5q87 16 229 19v63q0 88 -29 121t-106 33q-93 0 -229 -53q-14 -7 -23 -7q-14 0 -20 21l-43 123q-5 15 -5 22q0 32 114.5 63.5t236.5 31.5q248 0 319 -158q29 -62 29 -170v-418q0 -124 47 -221q6 -12 6 -23q0 -14 -16 -20l-160 -64 q-9 -6 -25 -6q-27 0 -61 121q-61 -63 -121.5 -90t-140.5 -27q-141 0 -224 84.5t-83 225.5zM315 295q0 -60 37.5 -100.5t93.5 -40.5q83 0 156 79v226q-154 0 -220.5 -37.5t-66.5 -126.5zM336 1290q0 11 26 27l334 199q20 12 29 12q16 0 29 -29l63 -125q10 -20 10 -28 q0 -19 -30 -29l-363 -143q-4 -1 -14.5 -4t-13.5 -3q-14 0 -27 29l-33 66q-10 18 -10 28z" />
<glyph unicode="&#xe2;" horiz-adv-x="987" d="M68 281q0 137 75 217.5t230 111.5q87 16 229 19v63q0 88 -29 121t-106 33q-93 0 -229 -53q-14 -7 -23 -7q-14 0 -20 21l-43 123q-5 15 -5 22q0 32 114.5 63.5t236.5 31.5q248 0 319 -158q29 -62 29 -170v-418q0 -124 47 -221q6 -12 6 -23q0 -14 -16 -20l-160 -64 q-9 -6 -25 -6q-27 0 -61 121q-61 -63 -121.5 -90t-140.5 -27q-141 0 -224 84.5t-83 225.5zM211 1286q0 14 22 31l232 182q22 17 29 17q9 0 30 -17l230 -182q22 -17 22 -31q0 -5 -12 -26l-39 -66q-16 -27 -31 -27q-5 0 -26 13l-174 102l-177 -102q-23 -13 -26 -13 q-17 0 -31 27l-37 66q-12 18 -12 26zM315 295q0 -60 37.5 -100.5t93.5 -40.5q83 0 156 79v226q-154 0 -220.5 -37.5t-66.5 -126.5z" />
<glyph unicode="&#xe3;" horiz-adv-x="987" d="M68 281q0 137 75 217.5t230 111.5q87 16 229 19v63q0 88 -29 121t-106 33q-93 0 -229 -53q-14 -7 -23 -7q-14 0 -20 21l-43 123q-5 15 -5 22q0 32 114.5 63.5t236.5 31.5q248 0 319 -158q29 -62 29 -170v-418q0 -124 47 -221q6 -12 6 -23q0 -14 -16 -20l-160 -64 q-9 -6 -25 -6q-27 0 -61 121q-61 -63 -121.5 -90t-140.5 -27q-141 0 -224 84.5t-83 225.5zM176 1262q0 20 45 90q37 55 74.5 77.5t91.5 22.5q65 0 145 -47q46 -25 66 -25t34.5 12.5t37.5 51.5q5 10 14 10q6 0 16 -6l95 -47q16 -5 16 -19q0 -20 -43 -82q-40 -60 -79.5 -85 t-94.5 -25q-34 0 -62 10.5t-73 40.5q-35 23 -62 23q-39 0 -73 -60q-10 -16 -19 -16q-3 0 -18 6l-97 49q-14 8 -14 19zM315 295q0 -60 37.5 -100.5t93.5 -40.5q83 0 156 79v226q-154 0 -220.5 -37.5t-66.5 -126.5z" />
<glyph unicode="&#xe4;" horiz-adv-x="987" d="M68 281q0 137 75 217.5t230 111.5q87 16 229 19v63q0 88 -29 121t-106 33q-93 0 -229 -53q-14 -7 -23 -7q-14 0 -20 21l-43 123q-5 15 -5 22q0 32 114.5 63.5t236.5 31.5q248 0 319 -158q29 -62 29 -170v-418q0 -124 47 -221q6 -12 6 -23q0 -14 -16 -20l-160 -64 q-9 -6 -25 -6q-27 0 -61 121q-61 -63 -121.5 -90t-140.5 -27q-141 0 -224 84.5t-83 225.5zM160 1305q0 60 41.5 100.5t101.5 40.5q57 0 98 -41.5t41 -99.5q0 -59 -41.5 -100.5t-99.5 -41.5t-99.5 41.5t-41.5 100.5zM315 295q0 -60 37.5 -100.5t93.5 -40.5q83 0 156 79v226 q-154 0 -220.5 -37.5t-66.5 -126.5zM522 1305q0 60 42 100.5t102 40.5q57 0 98 -41.5t41 -99.5q0 -59 -41.5 -100.5t-99.5 -41.5t-100 41.5t-42 100.5z" />
<glyph unicode="&#xe5;" horiz-adv-x="987" d="M68 281q0 137 75 217.5t230 111.5q87 16 229 19v63q0 88 -29 121t-106 33q-93 0 -229 -53q-14 -7 -23 -7q-14 0 -20 21l-43 123q-5 15 -5 22q0 32 114.5 63.5t236.5 31.5q248 0 319 -158q29 -62 29 -170v-418q0 -124 47 -221q6 -12 6 -23q0 -14 -16 -20l-160 -64 q-9 -6 -25 -6q-27 0 -61 121q-61 -63 -121.5 -90t-140.5 -27q-141 0 -224 84.5t-83 225.5zM268 1370q0 91 63 153t154 62q86 0 148.5 -63.5t62.5 -151.5q0 -89 -63 -152t-152 -63q-88 0 -150.5 63t-62.5 152zM315 295q0 -60 37.5 -100.5t93.5 -40.5q83 0 156 79v226 q-154 0 -220.5 -37.5t-66.5 -126.5zM395 1368q0 -35 25.5 -60.5t60.5 -25.5t60.5 25.5t25.5 62.5q0 35 -25.5 60.5t-60.5 25.5t-60.5 -25.5t-25.5 -62.5z" />
<glyph unicode="&#xe6;" horiz-adv-x="1478" d="M68 276q0 183 120 264t400 87v86q0 68 -30.5 100.5t-94.5 32.5q-108 0 -236 -53q-14 -7 -22 -7q-16 0 -23 23l-43 121q-4 14 -4 20q0 14 13 24t49 23q134 50 266 50q102 0 166 -32.5t102 -103.5q106 136 291 136q123 0 212.5 -60t133.5 -172q21 -52 34 -140t13 -179 q0 -34 -8.5 -47t-30.5 -13h-542q4 -136 55 -197t160 -61q60 0 105 12.5t130 51.5q12 6 23 6q14 0 20 -19l51 -123q6 -6 6 -22q0 -38 -121 -78.5t-235 -40.5q-220 0 -334 135q-74 -68 -150.5 -98.5t-174.5 -30.5q-141 0 -221 80.5t-80 224.5zM315 289q0 -60 33 -97.5 t84 -37.5q42 0 83.5 20t72.5 55v226q-129 0 -185 -23q-88 -40 -88 -143zM834 627h311q-1 122 -36.5 177.5t-109.5 55.5q-96 0 -137 -92q-15 -36 -28 -141z" />
<glyph unicode="&#xe7;" horiz-adv-x="833" d="M68 485q0 261 126.5 411.5t346.5 150.5q94 0 192 -39.5t98 -77.5q0 -14 -6 -23l-71 -131q-7 -14 -19 -14q-9 0 -20 8q-57 41 -92.5 55.5t-81.5 14.5q-105 0 -154 -83t-49 -261q0 -169 49.5 -247.5t155.5 -78.5q83 0 168 59q15 11 22 11q9 0 17 -15l49 -125q6 -16 6 -24 q0 -30 -76 -66q-38 -19 -67 -26.5t-97 -16.5l-4 -80q146 -18 146 -147q0 -84 -60.5 -133t-163.5 -49q-65 0 -108 10.5t-43 25.5q0 5 4 19l18 86q0 8 8 8q7 0 11 -2q38 -12 78 -12q61 0 61 47q0 44 -80 47q-28 0 -36.5 4t-8.5 16q0 7 2 15l14 153q-335 74 -335 510z" />
<glyph unicode="&#xe8;" horiz-adv-x="985" d="M68 498q0 248 123 398.5t325 150.5q406 0 406 -560q0 -31 -8.5 -41t-36.5 -10h-551q3 -132 58 -195t169 -63q111 0 233 64q13 8 27 8q13 0 23 -19l51 -122q6 -12 6 -23q0 -17 -16 -29t-68 -34q-134 -58 -283 -58q-195 0 -305 101q-73 67 -113 179.5t-40 252.5zM193 1346 q0 8 10 28l63 125q15 29 29 29q9 0 29 -12l333 -199q27 -16 27 -29q0 -11 -10 -26l-31 -66q-13 -29 -29 -29q-3 0 -7.5 1.5t-10 3t-8.5 2.5l-363 143q-32 13 -32 29zM330 627h319q-3 127 -37 180t-112 53t-117.5 -53.5t-52.5 -179.5z" />
<glyph unicode="&#xe9;" horiz-adv-x="985" d="M68 498q0 248 123 398.5t325 150.5q406 0 406 -560q0 -31 -8.5 -41t-36.5 -10h-551q3 -132 58 -195t169 -63q111 0 233 64q13 8 27 8q13 0 23 -19l51 -122q6 -12 6 -23q0 -17 -16 -29t-68 -34q-134 -58 -283 -58q-195 0 -305 101q-73 67 -113 179.5t-40 252.5zM330 627 h319q-3 127 -37 180t-112 53t-117.5 -53.5t-52.5 -179.5zM389 1290q0 11 27 27l334 199q20 12 28 12q16 0 29 -29l63 -125q11 -22 11 -28q0 -18 -31 -29l-363 -143q-4 -1 -14.5 -4t-13.5 -3q-14 0 -27 29l-33 66q-10 18 -10 28z" />
<glyph unicode="&#xea;" horiz-adv-x="985" d="M68 498q0 248 123 398.5t325 150.5q406 0 406 -560q0 -31 -8.5 -41t-36.5 -10h-551q3 -132 58 -195t169 -63q111 0 233 64q13 8 27 8q13 0 23 -19l51 -122q6 -12 6 -23q0 -17 -16 -29t-68 -34q-134 -58 -283 -58q-195 0 -305 101q-73 67 -113 179.5t-40 252.5zM238 1286 q0 14 22 31l232 182q22 17 28 17q10 0 31 -17l229 -182q23 -18 23 -31q0 -5 -12 -26l-39 -66q-16 -27 -31 -27q-6 0 -27 13l-174 102l-176 -102q-23 -13 -27 -13q-16 0 -30 27l-37 66q-12 18 -12 26zM330 627h319q-3 127 -37 180t-112 53t-117.5 -53.5t-52.5 -179.5z" />
<glyph unicode="&#xeb;" horiz-adv-x="985" d="M68 498q0 248 123 398.5t325 150.5q406 0 406 -560q0 -31 -8.5 -41t-36.5 -10h-551q3 -132 58 -195t169 -63q111 0 233 64q13 8 27 8q13 0 23 -19l51 -122q6 -12 6 -23q0 -17 -16 -29t-68 -34q-134 -58 -283 -58q-195 0 -305 101q-73 67 -113 179.5t-40 252.5zM170 1305 q0 60 41.5 100.5t101.5 40.5q57 0 98.5 -41.5t41.5 -99.5q0 -59 -41.5 -100.5t-100.5 -41.5q-58 0 -99.5 41.5t-41.5 100.5zM330 627h319q-3 127 -37 180t-112 53t-117.5 -53.5t-52.5 -179.5zM532 1305q0 60 42 100.5t102 40.5q57 0 98 -41.5t41 -99.5q0 -59 -41.5 -100.5 t-99.5 -41.5t-100 41.5t-42 100.5z" />
<glyph unicode="&#xec;" horiz-adv-x="606" d="M-74 1346q0 6 11 28l63 125q15 29 29 29q8 0 28 -12l334 -199q27 -16 27 -29q0 -11 -10 -26l-31 -66q-13 -29 -29 -29q-3 0 -7.5 1.5t-10 3t-8.5 2.5l-363 143q-33 13 -33 29zM2 856v121q0 23 6 29t29 6h381q23 0 29 -6t6 -29v-942q0 -23 -6 -29t-29 -6h-191 q-23 0 -28.5 6t-5.5 29v786h-156q-23 0 -29 6t-6 29z" />
<glyph unicode="&#xed;" horiz-adv-x="606" d="M0 856v121q0 23 6 29t29 6h381q23 0 29 -6t6 -29v-942q0 -23 -6 -29t-29 -6h-191q-23 0 -29 6t-6 29v786h-155q-23 0 -29 6t-6 29zM190 1290q0 11 27 27l334 199q20 12 29 12q15 0 28 -29l64 -125q10 -20 10 -28q0 -18 -31 -29l-362 -143q-4 -1 -15 -4t-14 -3 q-14 0 -27 29l-32 66q-11 19 -11 28z" />
<glyph unicode="&#xee;" horiz-adv-x="606" d="M2 856v121q0 23 6 29t29 6h381q23 0 29 -6t6 -29v-942q0 -23 -6 -29t-29 -6h-191q-23 0 -28.5 6t-5.5 29v786h-156q-23 0 -29 6t-6 29zM20 1286q0 13 23 31l231 182q22 17 29 17q10 0 31 -17l229 -182q23 -18 23 -31q0 -3 -13 -26l-38 -66q-16 -27 -31 -27q-6 0 -27 13 l-174 102l-176 -102q-23 -13 -27 -13q-16 0 -30 27l-37 66q-13 20 -13 26z" />
<glyph unicode="&#xef;" horiz-adv-x="606" d="M0 1305q0 60 41.5 100.5t101.5 40.5q57 0 98.5 -41.5t41.5 -99.5q0 -59 -41.5 -100.5t-100.5 -41.5q-58 0 -99.5 41.5t-41.5 100.5zM2 856v121q0 23 6 29t29 6h381q23 0 29 -6t6 -29v-942q0 -23 -6 -29t-29 -6h-191q-23 0 -28.5 6t-5.5 29v786h-156q-23 0 -29 6t-6 29z M324 1305q0 60 41.5 100.5t101.5 40.5q57 0 98 -41.5t41 -99.5q0 -59 -41.5 -100.5t-99.5 -41.5t-99.5 41.5t-41.5 100.5z" />
<glyph unicode="&#xf0;" d="M68 510q0 245 118 387q57 70 137 111t158 41q60 0 127 -37q-55 131 -98 198l-186 -88q-12 -6 -19 -6q-6 0 -16 17l-35 75q-6 12 -6 21q0 8 16 16l180 82q-37 67 -84 125q-14 17 -14 27q0 19 27 22l125 17q8 2 20 2q20 0 44 -23t69 -84l190 88q12 4 17 4q7 0 16 -18 l31 -66q10 -22 10 -24q0 -6 -3.5 -8.5t-21.5 -10.5l-172 -82q123 -207 191.5 -416.5t68.5 -379.5q0 -244 -120.5 -389.5t-323.5 -145.5q-212 0 -329 143.5t-117 401.5zM344 506q0 -179 40 -256.5t132 -77.5q94 0 137 79.5t43 252.5q0 181 -43 259.5t-141 78.5 q-89 0 -128.5 -79t-39.5 -257z" />
<glyph unicode="&#xf1;" horiz-adv-x="1099" d="M102 967q0 11 17 18l182 68q12 4 21 4q37 0 73 -142q77 71 148 101.5t159 30.5q137 0 201 -78.5t64 -245.5v-688q0 -23 -6 -29t-29 -6h-191q-23 0 -28.5 6t-5.5 29v631q0 91 -27.5 131.5t-89.5 40.5q-44 0 -84 -19t-94 -65v-719q0 -23 -6 -29t-29 -6h-191q-23 0 -28.5 6 t-5.5 29v688q0 133 -43 223q-7 14 -7 21zM260 1262q0 20 45 90q37 55 74.5 77.5t91.5 22.5q65 0 145 -47q46 -25 66 -25t34.5 12.5t37.5 51.5q5 10 14 10q6 0 16 -6l95 -47q16 -5 16 -19q0 -20 -43 -82q-40 -60 -79.5 -85t-94.5 -25q-34 0 -62 10.5t-73 40.5q-35 23 -62 23 q-39 0 -73 -60q-10 -16 -19 -16q-3 0 -18 6l-97 49q-14 8 -14 19z" />
<glyph unicode="&#xf2;" d="M68 506q0 249 118 391q66 78 146 114t190 36q201 0 318.5 -145t117.5 -394q0 -251 -119.5 -397t-324.5 -146q-211 0 -328.5 143t-117.5 398zM168 1346q0 8 10 28l64 125q15 29 28 29q9 0 29 -12l334 -199q26 -16 26 -29q0 -11 -10 -26l-31 -66q-13 -29 -28 -29 q-3 0 -7.5 1.5t-10.5 3t-9 2.5l-362 143q-33 13 -33 29zM344 506q0 -178 39.5 -256t128.5 -78q90 0 130 78.5t40 253.5q0 181 -40 258.5t-132 77.5q-88 0 -127 -78.5t-39 -255.5z" />
<glyph unicode="&#xf3;" d="M68 506q0 249 118 391q66 78 146 114t190 36q201 0 318.5 -145t117.5 -394q0 -251 -119.5 -397t-324.5 -146q-211 0 -328.5 143t-117.5 398zM344 506q0 -178 39.5 -256t128.5 -78q90 0 130 78.5t40 253.5q0 181 -40 258.5t-132 77.5q-88 0 -127 -78.5t-39 -255.5z M408 1290q0 11 26 27l334 199q20 12 29 12q15 0 28 -29l64 -125q10 -20 10 -28q0 -18 -31 -29l-362 -143q-4 -1 -15 -4t-14 -3q-13 0 -26 29l-33 66q-10 18 -10 28z" />
<glyph unicode="&#xf4;" d="M68 506q0 249 118 391q66 78 146 114t190 36q201 0 318.5 -145t117.5 -394q0 -251 -119.5 -397t-324.5 -146q-211 0 -328.5 143t-117.5 398zM229 1286q0 13 23 31l231 182q22 17 29 17q10 0 31 -17l229 -182q23 -18 23 -31q0 -3 -13 -26l-39 -66q-11 -17 -16 -22t-14 -5 q-6 0 -27 13l-174 102l-176 -102q-23 -13 -27 -13q-16 0 -30 27l-37 66q-13 20 -13 26zM344 506q0 -178 39.5 -256t128.5 -78q90 0 130 78.5t40 253.5q0 181 -40 258.5t-132 77.5q-88 0 -127 -78.5t-39 -255.5z" />
<glyph unicode="&#xf5;" d="M68 506q0 249 118 391q66 78 146 114t190 36q201 0 318.5 -145t117.5 -394q0 -251 -119.5 -397t-324.5 -146q-211 0 -328.5 143t-117.5 398zM195 1262q0 20 45 90q37 55 74.5 77.5t91.5 22.5q65 0 145 -47q46 -25 65 -25q20 0 34.5 12.5t37.5 51.5q5 10 14 10q7 0 17 -6 l94 -47q16 -5 16 -19q0 -20 -43 -82q-40 -60 -79.5 -85t-94.5 -25q-34 0 -62 10.5t-73 40.5q-35 23 -61 23q-40 0 -74 -60q-10 -16 -18 -16q-4 0 -19 6l-96 49q-14 8 -14 19zM344 506q0 -178 39.5 -256t128.5 -78q90 0 130 78.5t40 253.5q0 181 -40 258.5t-132 77.5 q-88 0 -127 -78.5t-39 -255.5z" />
<glyph unicode="&#xf6;" d="M68 506q0 249 118 391q66 78 146 114t190 36q201 0 318.5 -145t117.5 -394q0 -251 -119.5 -397t-324.5 -146q-211 0 -328.5 143t-117.5 398zM190 1305q0 60 42 100.5t102 40.5q57 0 98 -41.5t41 -99.5q0 -59 -41.5 -100.5t-99.5 -41.5t-100 41.5t-42 100.5zM344 506 q0 -178 39.5 -256t128.5 -78q90 0 130 78.5t40 253.5q0 181 -40 258.5t-132 77.5q-88 0 -127 -78.5t-39 -255.5zM553 1305q0 60 41.5 100.5t101.5 40.5q57 0 98.5 -41.5t41.5 -99.5q0 -59 -42 -100.5t-100 -41.5t-99.5 41.5t-41.5 100.5z" />
<glyph unicode="&#xf7;" d="M45 618v130q0 28 7.5 35.5t35.5 7.5h850q26 0 33.5 -7.5t7.5 -35.5v-130q0 -26 -7.5 -33t-33.5 -7h-850q-29 0 -36 6t-7 34zM365 332q0 63 42 105t105 42q60 0 102.5 -43t42.5 -104q0 -60 -42.5 -103t-102.5 -43q-61 0 -104 43t-43 103zM365 1034q0 63 42.5 105.5 t104.5 42.5q60 0 102.5 -43.5t42.5 -104.5q0 -60 -42.5 -102.5t-102.5 -42.5q-61 0 -104 42.5t-43 102.5z" />
<glyph unicode="&#xf8;" d="M68 508q0 250 120.5 394.5t327.5 144.5q115 0 203 -46l51 91q9 16 13 20t10 4q7 0 24 -10l53 -29q23 -13 23 -22t-8 -25l-62 -108q70 -82 102.5 -181t32.5 -233q0 -251 -119 -397t-323 -146q-118 0 -211 45l-55 -98q-12 -23 -23 -23q-3 0 -24 9l-53 28q-23 13 -23 25 q0 6 10 24l64 115q-133 154 -133 418zM315 512q0 -101 21 -227l274 526q-43 35 -100 35q-103 0 -149 -78.5t-46 -255.5zM416 201q28 -21 47.5 -28t48.5 -7q104 0 151.5 78.5t47.5 251.5q0 114 -25 225z" />
<glyph unicode="&#xf9;" horiz-adv-x="1099" d="M133 365v600q0 21 4.5 26t26.5 10l190 41q4 2 17 2q12 0 17 -7t5 -25v-635q0 -113 19 -150q13 -26 41.5 -40.5t64.5 -14.5q81 0 170 74v719q0 21 4.5 26t26.5 10l190 41l21 2q18 0 18 -32v-754q0 -76 8 -120t31 -89q6 -9 6 -18q0 -11 -20 -17l-172 -39q-16 -4 -23 -4 q-36 0 -61 113q-69 -66 -132 -92.5t-151 -26.5q-155 0 -231 88q-43 47 -56.5 108.5t-13.5 203.5zM164 1346q0 8 10 28l64 125q15 29 28 29q9 0 29 -12l334 -199q26 -16 26 -29q0 -11 -10 -26l-31 -66q-13 -29 -28 -29q-3 0 -7.5 1.5t-10.5 3t-9 2.5l-362 143q-33 13 -33 29z " />
<glyph unicode="&#xfa;" horiz-adv-x="1099" d="M133 365v600q0 21 4.5 26t26.5 10l190 41q4 2 17 2q12 0 17 -7t5 -25v-635q0 -113 19 -150q13 -26 41.5 -40.5t64.5 -14.5q81 0 170 74v719q0 21 4.5 26t26.5 10l190 41l21 2q18 0 18 -32v-754q0 -76 8 -120t31 -89q6 -9 6 -18q0 -11 -20 -17l-172 -39q-16 -4 -23 -4 q-36 0 -61 113q-69 -66 -132 -92.5t-151 -26.5q-155 0 -231 88q-43 47 -56.5 108.5t-13.5 203.5zM459 1290q0 11 26 27l334 199q20 12 29 12q16 0 29 -29l63 -125q10 -20 10 -28q0 -19 -30 -29l-363 -143q-4 -1 -15 -4t-14 -3q-13 0 -26 29l-33 66q-10 18 -10 28z" />
<glyph unicode="&#xfb;" horiz-adv-x="1099" d="M133 365v600q0 21 4.5 26t26.5 10l190 41q4 2 17 2q12 0 17 -7t5 -25v-635q0 -113 19 -150q13 -26 41.5 -40.5t64.5 -14.5q81 0 170 74v719q0 21 4.5 26t26.5 10l190 41l21 2q18 0 18 -32v-754q0 -76 8 -120t31 -89q6 -9 6 -18q0 -11 -20 -17l-172 -39q-16 -4 -23 -4 q-36 0 -61 113q-69 -66 -132 -92.5t-151 -26.5q-155 0 -231 88q-43 47 -56.5 108.5t-13.5 203.5zM266 1286q0 13 23 31l231 182q22 17 29 17q10 0 31 -17l229 -182q22 -17 22 -31q0 -5 -12 -26l-39 -66q-11 -17 -16 -22t-14 -5q-6 0 -27 13l-174 102l-176 -102 q-23 -13 -27 -13q-17 0 -31 27l-36 66q-13 20 -13 26z" />
<glyph unicode="&#xfc;" horiz-adv-x="1099" d="M133 365v600q0 21 4.5 26t26.5 10l190 41q4 2 17 2q12 0 17 -7t5 -25v-635q0 -113 19 -150q13 -26 41.5 -40.5t64.5 -14.5q81 0 170 74v719q0 21 4.5 26t26.5 10l190 41l21 2q18 0 18 -32v-754q0 -76 8 -120t31 -89q6 -9 6 -18q0 -11 -20 -17l-172 -39q-16 -4 -23 -4 q-36 0 -61 113q-69 -66 -132 -92.5t-151 -26.5q-155 0 -231 88q-43 47 -56.5 108.5t-13.5 203.5zM240 1305q0 60 41.5 100.5t101.5 40.5q57 0 98 -41.5t41 -99.5q0 -59 -41.5 -100.5t-99.5 -41.5t-99.5 41.5t-41.5 100.5zM602 1305q0 60 41.5 100.5t101.5 40.5 q57 0 98.5 -41.5t41.5 -99.5q0 -59 -41.5 -100.5t-100.5 -41.5q-58 0 -99.5 41.5t-41.5 100.5z" />
<glyph unicode="&#xfd;" horiz-adv-x="909" d="M-10 983q0 18 33 21l208 22h15q9 0 14.5 -6t9.5 -23l136 -503q33 -120 79 -355q8 46 17 95t14 77q7 42 19 95l20 88l115 501q5 19 9 25t13 6t17 -2l180 -20q33 -3 33 -21q0 -6 -4 -20l-205 -750q-4 -14 -35 -135q-51 -213 -81 -292.5t-75 -133.5q-88 -107 -248 -107 q-87 0 -183.5 33t-96.5 64q0 6 8 22l64 131q8 15 18 15q5 0 16 -7q91 -45 158 -45q65 0 99.5 33.5t60.5 122.5l24 86h-86q-21 0 -27 4t-12 23l-321 934q-6 21 -6 22zM350 1290q0 11 27 27l334 199q20 12 28 12q16 0 29 -29l63 -125q11 -22 11 -28q0 -18 -31 -29l-362 -143 q-4 -1 -15 -4t-14 -3q-14 0 -27 29l-33 66q-10 18 -10 28z" />
<glyph unicode="&#xfe;" horiz-adv-x="1062" d="M152 -399v1794q0 25 8 35t33 14l174 35q20 4 26 4q11 0 15 -7.5t4 -27.5v-485q100 84 229 84q173 0 263.5 -135t90.5 -390q0 -557 -374 -557q-61 0 -108 12t-101 41v-370q0 -20 -5.5 -26t-25.5 -11l-184 -39q-16 -4 -25 -4q-20 0 -20 33zM412 201q71 -39 143 -39 q100 0 140 78t40 274q0 169 -39.5 247.5t-124.5 78.5q-42 0 -78 -17t-81 -57v-565z" />
<glyph unicode="&#xff;" horiz-adv-x="909" d="M-10 983q0 18 33 21l208 22h15q9 0 14.5 -6t9.5 -23l136 -503q33 -120 79 -355q8 46 17 95t14 77q7 42 19 95l20 88l115 501q5 19 9 25t13 6t17 -2l180 -20q33 -3 33 -21q0 -6 -4 -20l-205 -750q-4 -14 -35 -135q-51 -213 -81 -292.5t-75 -133.5q-88 -107 -248 -107 q-87 0 -183.5 33t-96.5 64q0 6 8 22l64 131q8 15 18 15q5 0 16 -7q91 -45 158 -45q65 0 99.5 33.5t60.5 122.5l24 86h-86q-21 0 -27 4t-12 23l-321 934q-6 21 -6 22zM160 1305q0 60 41.5 100.5t101.5 40.5q57 0 98 -41.5t41 -99.5q0 -59 -41.5 -100.5t-99.5 -41.5 t-99.5 41.5t-41.5 100.5zM522 1305q0 60 42 100.5t102 40.5q57 0 98 -41.5t41 -99.5q0 -59 -41.5 -100.5t-99.5 -41.5t-100 41.5t-42 100.5z" />
<glyph unicode="&#x152;" horiz-adv-x="1593" d="M82 709q0 221 41.5 363t134.5 239q123 129 340 129q108 0 217 -35h692q41 0 41 -23q0 -3 -0.5 -4.5t-2 -7t-3.5 -12.5l-37 -141q-4 -20 -14 -27.5t-31 -7.5h-401v-336h348q26 0 33.5 -7.5t7.5 -35.5v-137q0 -28 -7.5 -35.5t-33.5 -7.5h-348v-400h434q28 0 34.5 -7 t6.5 -36v-137q0 -29 -6.5 -36t-34.5 -7h-666q-127 -35 -235 -35q-258 0 -384 184.5t-126 559.5zM377 705q0 -270 61 -410q52 -115 180 -115q85 0 170 53v938q-54 32 -93 45t-85 13q-126 0 -179.5 -120.5t-53.5 -403.5z" />
<glyph unicode="&#x153;" horiz-adv-x="1554" d="M68 516q0 245 122.5 388t331.5 143q93 0 156.5 -27.5t126.5 -95.5q64 66 132 94.5t159 28.5q193 0 294 -139.5t101 -405.5q0 -39 -8 -52.5t-31 -13.5h-551q3 -133 57.5 -195.5t167.5 -62.5q105 0 234 66q15 6 22 6q16 0 19 -14l55 -130q6 -12 6 -20q0 -26 -55.5 -54.5 t-138.5 -47.5t-158 -19q-234 0 -313 135q-53 -71 -119.5 -103t-161.5 -32q-209 0 -328.5 146.5t-119.5 404.5zM342 506q0 -177 38 -255.5t126 -78.5q86 0 125 78.5t39 253.5q0 185 -36.5 260.5t-125.5 75.5q-90 0 -128 -76.5t-38 -257.5zM903 627h318q-3 127 -37 180 t-111 53q-78 0 -115.5 -51t-54.5 -182z" />
<glyph unicode="&#x178;" horiz-adv-x="987" d="M-43 1360q0 21 39 26l213 35q14 4 20 4q11 0 16.5 -5t14.5 -25l164 -348q28 -58 86 -226q39 136 90 240l160 336q12 28 26 28q9 0 15 -2l10 -2l182 -39q35 -8 35 -26q0 -12 -10 -29l-377 -752v-532q0 -28 -7.5 -35.5t-35.5 -7.5h-195q-29 0 -36 7t-7 36v535l-393 753 q-10 20 -10 29zM188 1681q0 60 43 102t105 42q59 0 101 -43t42 -103t-42.5 -102.5t-102.5 -42.5q-61 0 -103.5 42.5t-42.5 104.5zM561 1681q0 60 43.5 103t106.5 43q58 0 100.5 -43.5t42.5 -102.5q0 -61 -42.5 -104t-102.5 -43q-62 0 -105 43t-43 104z" />
<glyph unicode="&#x2c6;" d="M229 1286q0 13 23 31l231 182q22 17 29 17q10 0 31 -17l229 -182q23 -18 23 -31q0 -3 -13 -26l-39 -66q-11 -17 -16 -22t-14 -5q-6 0 -27 13l-174 102l-176 -102q-23 -13 -27 -13q-16 0 -30 27l-37 66q-13 20 -13 26z" />
<glyph unicode="&#x2dc;" d="M195 1262q0 20 45 90q37 55 74.5 77.5t91.5 22.5q65 0 145 -47q46 -25 65 -25q20 0 34.5 12.5t37.5 51.5q5 10 14 10q7 0 17 -6l94 -47q16 -5 16 -19q0 -20 -43 -82q-40 -60 -79.5 -85t-94.5 -25q-34 0 -62 10.5t-73 40.5q-35 23 -61 23q-40 0 -74 -60q-10 -16 -18 -16 q-4 0 -19 6l-96 49q-14 8 -14 19z" />
<glyph unicode="&#x2000;" horiz-adv-x="984" />
<glyph unicode="&#x2001;" horiz-adv-x="1968" />
<glyph unicode="&#x2002;" horiz-adv-x="984" />
<glyph unicode="&#x2003;" horiz-adv-x="1968" />
<glyph unicode="&#x2004;" horiz-adv-x="656" />
<glyph unicode="&#x2005;" horiz-adv-x="492" />
<glyph unicode="&#x2006;" horiz-adv-x="328" />
<glyph unicode="&#x2007;" horiz-adv-x="328" />
<glyph unicode="&#x2008;" horiz-adv-x="246" />
<glyph unicode="&#x2009;" horiz-adv-x="393" />
<glyph unicode="&#x200a;" horiz-adv-x="109" />
<glyph unicode="&#x2010;" horiz-adv-x="757" d="M80 442v162q0 28 7 34.5t36 6.5h512q28 0 35.5 -7.5t7.5 -33.5v-162q0 -28 -7 -34.5t-36 -6.5h-512q-28 0 -35.5 7t-7.5 34z" />
<glyph unicode="&#x2011;" horiz-adv-x="757" d="M80 442v162q0 28 7 34.5t36 6.5h512q28 0 35.5 -7.5t7.5 -33.5v-162q0 -28 -7 -34.5t-36 -6.5h-512q-28 0 -35.5 7t-7.5 34z" />
<glyph unicode="&#x2012;" horiz-adv-x="757" d="M80 442v162q0 28 7 34.5t36 6.5h512q28 0 35.5 -7.5t7.5 -33.5v-162q0 -28 -7 -34.5t-36 -6.5h-512q-28 0 -35.5 7t-7.5 34z" />
<glyph unicode="&#x2013;" d="M72 457v139q0 28 7 34.5t36 6.5h792q28 0 35.5 -7.5t7.5 -33.5v-139q0 -26 -7.5 -33.5t-35.5 -7.5h-792q-28 0 -35.5 7.5t-7.5 33.5z" />
<glyph unicode="&#x2014;" horiz-adv-x="1705" d="M68 463v127q0 29 7 36t36 7h1484q28 0 35.5 -7.5t7.5 -35.5v-127q0 -26 -7.5 -33.5t-35.5 -7.5h-1484q-28 0 -35.5 7.5t-7.5 33.5z" />
<glyph unicode="&#x2018;" horiz-adv-x="606" d="M82 963q0 12 10 30l244 457q15 29 29 29q2 0 6 -1l10 -2.5l10 -2.5l76 -27q33 -11 33 -27q0 -10 -4 -26l-129 -418q-6 -20 -15.5 -27.5t-29.5 -7.5h-199q-41 0 -41 23z" />
<glyph unicode="&#x2019;" horiz-adv-x="606" d="M104 985q0 6 7 27l127 418q6 20 16 27t31 7h196q43 0 43 -22q0 -5 -12 -29l-244 -459q-9 -17 -14.5 -22.5t-13.5 -5.5q-4 0 -25 6l-78 26q-19 6 -26 12t-7 15z" />
<glyph unicode="&#x201a;" horiz-adv-x="606" d="M106 -223q0 3 1 5.5t2.5 8.5t3.5 12l127 418q6 20 15.5 27.5t31.5 7.5h196q41 0 41 -23q0 -13 -10 -28l-244 -459q-9 -19 -14 -24t-14 -5q-2 0 -25 7l-78 26q-20 7 -26.5 12.5t-6.5 14.5z" />
<glyph unicode="&#x201c;" d="M82 963q0 12 10 30l244 457q15 29 29 29q2 0 6 -1l10 -2.5l10 -2.5l76 -27q33 -11 33 -27q0 -10 -4 -26l-129 -418q-6 -20 -15.5 -27.5t-29.5 -7.5h-199q-41 0 -41 23zM500 965q0 8 10 28l244 457q9 18 14 23.5t14 5.5q2 0 6.5 -1t10.5 -2.5l10 -2.5l76 -27 q33 -11 33 -27q0 -12 -7 -26l-127 -418q-6 -20 -16 -27.5t-29 -7.5h-198q-41 0 -41 25z" />
<glyph unicode="&#x201d;" d="M106 985q0 4 7 27l127 418q6 20 16 27t31 7h196q41 0 41 -22q0 -11 -10 -31l-244 -457q-9 -18 -14 -23t-12 -5t-27 6l-78 26q-19 6 -26 12t-7 15zM524 985q0 9 6 27l127 418q6 20 15.5 27t29.5 7h199q41 0 41 -22q0 -11 -10 -31l-244 -457q-15 -28 -29 -28h-4q-8 0 -22 6 l-76 26q-20 7 -26.5 12.5t-6.5 14.5z" />
<glyph unicode="&#x201e;" d="M106 -223q0 3 7 26l127 418q6 20 15.5 27.5t31.5 7.5h196q41 0 41 -23q0 -11 -10 -28l-244 -459q-9 -18 -14 -23.5t-12 -5.5q-4 0 -27 7l-78 26q-20 7 -26.5 12.5t-6.5 14.5zM524 -223q0 8 6 26l127 418q6 20 15.5 27.5t29.5 7.5h199q41 0 41 -23q0 -11 -10 -28 l-244 -459q-8 -18 -14.5 -23.5t-14.5 -5.5h-4q-6 0 -22 7l-76 26q-20 7 -26.5 12.5t-6.5 14.5z" />
<glyph unicode="&#x2022;" d="M219 713q0 123 85.5 208t209.5 85q119 0 205 -86t86 -207q0 -120 -85.5 -205.5t-205.5 -85.5q-122 0 -208.5 85.5t-86.5 205.5z" />
<glyph unicode="&#x2026;" horiz-adv-x="1820" d="M109 164q0 80 57.5 136t140.5 56q78 0 134.5 -57.5t56.5 -136.5q0 -82 -56.5 -138.5t-138.5 -56.5t-138 57t-56 140zM715 164q0 80 57.5 136t140.5 56q78 0 134.5 -57.5t56.5 -136.5q0 -82 -56.5 -138.5t-138.5 -56.5t-138 57t-56 140zM1323 164q0 80 58 136t141 56 q78 0 134 -57t56 -137q0 -82 -56 -138.5t-138 -56.5t-138.5 57t-56.5 140z" />
<glyph unicode="&#x202f;" horiz-adv-x="393" />
<glyph unicode="&#x2039;" horiz-adv-x="757" d="M84 500q0 10 14 28l348 467q12 17 16.5 21t12.5 4q9 0 29 -14l100 -64q27 -16 27 -29q0 -7 -15 -28l-251 -373l253 -385q13 -20 13 -29q0 -11 -25 -28l-102 -64q-23 -14 -31 -14q-10 0 -27 24l-348 455q-14 19 -14 29z" />
<glyph unicode="&#x203a;" horiz-adv-x="757" d="M127 96q0 10 14 31l252 373l-252 383q-14 22 -14 30q0 13 27 29l100 64q20 14 31 14q6 0 10 -4t18 -21l349 -454q12 -17 12 -29t-12 -29l-349 -467q-19 -24 -28 -24q-13 0 -31 12l-100 64q-27 16 -27 28z" />
<glyph unicode="&#x205f;" horiz-adv-x="492" />
<glyph unicode="&#x20ac;" horiz-adv-x="1099" d="M57 551q0 12 2 22l4 21q6 28 15 35.5t37 7.5h129q-2 23 -2 70v34h-148q-20 0 -28.5 4.5t-8.5 16.5t2 22l4 21q6 28 15 35.5t37 7.5h133q23 243 151 399q139 158 344 158q165 0 304 -102q43 -32 43 -50q0 -6 -19 -39l-61 -110q-14 -29 -27 -29q-3 0 -5.5 1t-7.5 5l-10 8 t-15.5 13t-22.5 18q-76 62 -162 62q-110 0 -173 -84.5t-77 -249.5h344q22 0 30.5 -5t8.5 -18q0 -4 -4 -20l-4 -21q-4 -28 -13.5 -35.5t-37.5 -7.5h-328q0 -67 2 -104h305q24 0 31.5 -4t7.5 -17q0 -2 -4 -22l-4 -21q-4 -28 -13.5 -35.5t-37.5 -7.5h-277q36 -344 272 -344 q82 0 187 76q12 8 20 8t17 -18l75 -133q5 -15 5 -17q0 -25 -43 -55q-125 -82 -291 -82q-99 0 -179.5 31t-135.5 83t-95.5 126t-62.5 153.5t-33 171.5h-158q-20 0 -28.5 4.5t-8.5 16.5z" />
<glyph unicode="&#x2122;" horiz-adv-x="1441" d="M-14 1280v94q0 19 6.5 25t27.5 6h525q35 0 35 -21q0 -1 -5 -16l-26 -94q-5 -14 -12 -19.5t-25 -5.5h-147v-614q0 -19 -6.5 -25t-28.5 -6h-119q-25 0 -32 5.5t-7 25.5v614h-152q-21 0 -27.5 6t-6.5 25zM606 623v2l2 12l37 739q2 18 8 23.5t27 5.5h125q18 0 25 -4.5 t12 -18.5l100 -288q17 -46 29 -103q8 38 33 103l108 288q6 15 12 19t25 4h119q20 0 26.5 -6t8.5 -23l40 -739v-8q0 -25 -34 -25h-115q-21 0 -28 6t-7 25l-8 405v31q0 49 4 107l-4 -17l-8 -41q-6 -33 -21 -84l-82 -235q-6 -15 -12 -19t-24 -4h-78q-18 0 -25 5t-12 20l-70 223 q-18 60 -35 148q2 -51 4 -74q3 -27 3 -37l-3 -39l-10 -389q0 -19 -6.5 -25t-28.5 -6h-102q-15 0 -25 5.5t-10 13.5z" />
<glyph unicode="&#x25fc;" d="M0 0v1024h1024v-1024h-1024z" />
</font>
</defs>
</svg>
